<svg xmlns="http://www.w3.org/2000/svg" viewBox="0 0 106.13 135.48"><defs><style>.cls-1{fill:#5a55e8;}.cls-2,.cls-4{fill:#fff;}.cls-2{opacity:0.12;}.cls-3,.cls-5,.cls-6{fill:none;stroke:#fff;stroke-miterlimit:10;}.cls-3{stroke-width:0.78px;}.cls-5,.cls-6{stroke-width:3.13px;}.cls-5{opacity:0.15;}.cls-6{stroke-linecap:round;}</style></defs><g id="Layer_2" data-name="Layer 2"><g id="Layer_1-2" data-name="Layer 1"><rect class="cls-1" width="106.13" height="135.48" rx="6.77"/><rect class="cls-2" x="6.62" y="26.94" width="90.94" height="28.16" rx="14.08"/><rect class="cls-3" x="6.62" y="26.94" width="90.94" height="28.16" rx="14.08"/><rect class="cls-2" x="6.62" y="61.14" width="90.94" height="28.16" rx="14.08"/><rect class="cls-3" x="6.62" y="61.14" width="90.94" height="28.16" rx="14.08"/><rect class="cls-2" x="6.62" y="95.35" width="90.94" height="28.16" rx="14.08"/><rect class="cls-3" x="6.62" y="95.35" width="90.94" height="28.16" rx="14.08"/><path class="cls-4" d="M10.75,16.51l2.57-6.37h.91l-2.52,6.37ZM12,14.81V14h3.67v.8Zm3.92,1.7-2.52-6.37h.91l2.57,6.37Z"/><path class="cls-4" d="M17.52,16.51V12h.81l.05.84v3.71Zm3.14-2.33a2.35,2.35,0,0,0-.14-.94.8.8,0,0,0-.39-.45,1.46,1.46,0,0,0-.58-.14,1.05,1.05,0,0,0-.86.39,1.75,1.75,0,0,0-.31,1.11H18a3.32,3.32,0,0,1,.21-1.24,1.73,1.73,0,0,1,.61-.78,1.58,1.58,0,0,1,.94-.28,2,2,0,0,1,.94.22,1.44,1.44,0,0,1,.6.68,2.77,2.77,0,0,1,.22,1.2v.23Zm0,2.33V14.18h.87v2.33Z"/><path class="cls-4" d="M24.07,16.62a1.9,1.9,0,0,1-1.25-.37,1.26,1.26,0,0,1-.45-1,1.27,1.27,0,0,1,.46-1.07,2.06,2.06,0,0,1,1.31-.37H25.4v.68h-1a1.5,1.5,0,0,0-.88.2.64.64,0,0,0-.25.54.59.59,0,0,0,.24.5,1.16,1.16,0,0,0,.67.17,1.19,1.19,0,0,0,.64-.16,1,1,0,0,0,.43-.45,1.4,1.4,0,0,0,.16-.66h.3a2.47,2.47,0,0,1-.4,1.47A1.4,1.4,0,0,1,24.07,16.62Zm1.34-.11,0-.79V14.14a2.49,2.49,0,0,0-.12-.84,1,1,0,0,0-.34-.51,1,1,0,0,0-.62-.17,1.31,1.31,0,0,0-.61.14,1.13,1.13,0,0,0-.43.46l-.77-.29a2.25,2.25,0,0,1,.41-.55,2,2,0,0,1,.59-.39,2.21,2.21,0,0,1,.81-.14,2.11,2.11,0,0,1,1.08.26,1.63,1.63,0,0,1,.64.73,2.87,2.87,0,0,1,.2,1.2v2.47Z"/><path class="cls-4" d="M27.31,16.51V10.14h.87v6.37Z"/><path class="cls-4" d="M30.84,16.51l-2-4.55h.92l1.64,3.95.27.6Zm-.91,1.93a1.9,1.9,0,0,1-.44-.07,4,4,0,0,1-.5-.2l.32-.71a2.11,2.11,0,0,0,.35.14.93.93,0,0,0,.24,0,.63.63,0,0,0,.39-.13.91.91,0,0,0,.26-.36l.53-1.24,1.62-4h.92l-2.15,5.11a4.94,4.94,0,0,1-.37.73,1.22,1.22,0,0,1-.46.47A1.38,1.38,0,0,1,29.93,18.44Z"/><path class="cls-4" d="M33.84,12.71V12h2.93v.75ZM36,16.62a1.5,1.5,0,0,1-1-.35,1.31,1.31,0,0,1-.37-1V10.54h.86v4.6a.73.73,0,0,0,.17.51.62.62,0,0,0,.48.18.51.51,0,0,0,.2,0,1,1,0,0,0,.27-.14l.33.67a2.4,2.4,0,0,1-.45.23A1.68,1.68,0,0,1,36,16.62Z"/><path class="cls-4" d="M38.27,11a.46.46,0,0,1-.36-.16.5.5,0,0,1-.16-.37.49.49,0,0,1,.16-.37.49.49,0,0,1,.36-.15.5.5,0,0,1,.37.15.51.51,0,0,1,.15.37.53.53,0,0,1-.15.37A.47.47,0,0,1,38.27,11Zm-.44,5.51V12h.87v4.55Z"/><path class="cls-4" d="M42,16.62a2.29,2.29,0,0,1-1.21-.31,2.1,2.1,0,0,1-.83-.84,2.57,2.57,0,0,1-.29-1.23A2.61,2.61,0,0,1,40,13a2.14,2.14,0,0,1,.82-.84,2.46,2.46,0,0,1,2.39,0A2,2,0,0,1,44,13l-.78.33a1.34,1.34,0,0,0-.5-.53,1.48,1.48,0,0,0-.74-.19,1.4,1.4,0,0,0-.73.2,1.43,1.43,0,0,0-.5.56,1.84,1.84,0,0,0-.18.83,1.73,1.73,0,0,0,.18.81,1.32,1.32,0,0,0,.51.56,1.36,1.36,0,0,0,.74.21,1.24,1.24,0,0,0,.74-.22,1.32,1.32,0,0,0,.5-.57l.79.32a2,2,0,0,1-.8.93A2.16,2.16,0,0,1,42,16.62Z"/><path class="cls-4" d="M46.52,16.62a2.31,2.31,0,0,1-.86-.15,1.81,1.81,0,0,1-.64-.39,1.56,1.56,0,0,1-.38-.55l.74-.33a1.21,1.21,0,0,0,.44.46,1.13,1.13,0,0,0,.65.19,1.24,1.24,0,0,0,.64-.15.46.46,0,0,0,.26-.41.48.48,0,0,0-.2-.4,1.58,1.58,0,0,0-.55-.24l-.43-.1a2.22,2.22,0,0,1-1-.52,1.05,1.05,0,0,1-.35-.79,1.27,1.27,0,0,1,.42-1,1.89,1.89,0,0,1,1.27-.37,2.27,2.27,0,0,1,.75.12,1.68,1.68,0,0,1,.58.34,1.21,1.21,0,0,1,.34.52l-.73.32a.72.72,0,0,0-.37-.4,1.35,1.35,0,0,0-.62-.13.9.9,0,0,0-.57.16.51.51,0,0,0-.21.44.38.38,0,0,0,.18.29,1.49,1.49,0,0,0,.52.24l.49.11a2.11,2.11,0,0,1,.74.34,1.36,1.36,0,0,1,.43.5,1.16,1.16,0,0,1,.15.57A1.18,1.18,0,0,1,48,16a1.52,1.52,0,0,1-.61.47A2.42,2.42,0,0,1,46.52,16.62Z"/><path class="cls-4" d="M35.23,43V39.3H33.91v-.54h3.22v.54H35.82V43Z"/><path class="cls-4" d="M37.93,39.32a.3.3,0,0,1-.24-.1.34.34,0,0,1-.11-.24.34.34,0,0,1,.11-.25.33.33,0,0,1,.24-.1.37.37,0,0,1,.24.1.37.37,0,0,1,.1.25.37.37,0,0,1-.1.24A.33.33,0,0,1,37.93,39.32ZM37.64,43V40h.57v3Z"/><path class="cls-4" d="M39,43V40h.54l0,.41A.89.89,0,0,1,40,40a1,1,0,0,1,.5-.12,1.09,1.09,0,0,1,.61.16,1,1,0,0,1,.37.5,1,1,0,0,1,.37-.49.92.92,0,0,1,.57-.17,1,1,0,0,1,.79.33,1.48,1.48,0,0,1,.29,1V43h-.57V41.42a1.94,1.94,0,0,0-.08-.62.67.67,0,0,0-.23-.3.74.74,0,0,0-.34-.08.6.6,0,0,0-.52.25,1.29,1.29,0,0,0-.18.73V43H41V41.42a1.66,1.66,0,0,0-.09-.62.55.55,0,0,0-.23-.3.74.74,0,0,0-.34-.08.61.61,0,0,0-.52.25,1.29,1.29,0,0,0-.18.73V43Z"/><path class="cls-4" d="M45.51,43a1.5,1.5,0,0,1-.77-.2,1.3,1.3,0,0,1-.53-.56,1.62,1.62,0,0,1-.19-.81,1.68,1.68,0,0,1,.19-.82,1.34,1.34,0,0,1,.53-.55,1.42,1.42,0,0,1,.78-.2,1.34,1.34,0,0,1,.72.2,1.43,1.43,0,0,1,.49.59,2.09,2.09,0,0,1,.18.9H44.48l.11-.09a1.09,1.09,0,0,0,.13.55.85.85,0,0,0,.34.36,1,1,0,0,0,.49.12.87.87,0,0,0,.5-.14.93.93,0,0,0,.32-.36l.49.23a1.39,1.39,0,0,1-.31.41,1.42,1.42,0,0,1-.46.28A1.72,1.72,0,0,1,45.51,43Zm-.88-1.81-.12-.09h1.9l-.11.09a.79.79,0,0,0-.11-.45.71.71,0,0,0-.28-.29.8.8,0,0,0-.41-.1.86.86,0,0,0-.41.1.75.75,0,0,0-.33.28A.78.78,0,0,0,44.63,41.22Z"/><path class="cls-4" d="M50.43,43a2.31,2.31,0,0,1-.61-.08,1.56,1.56,0,0,1-.47-.21,1.43,1.43,0,0,1-.34-.3.87.87,0,0,1-.18-.36l.57-.18a.9.9,0,0,0,.34.42,1.11,1.11,0,0,0,.62.19,1.21,1.21,0,0,0,.7-.18.54.54,0,0,0,.25-.47.52.52,0,0,0-.22-.44,1.62,1.62,0,0,0-.59-.26L50,41a1.79,1.79,0,0,1-.53-.22,1.09,1.09,0,0,1-.37-.37.89.89,0,0,1-.14-.53,1.13,1.13,0,0,1,.37-.9,1.59,1.59,0,0,1,1.09-.32,1.68,1.68,0,0,1,.7.13,1.5,1.5,0,0,1,.5.33,1.34,1.34,0,0,1,.28.47l-.57.19a1,1,0,0,0-.35-.44,1.09,1.09,0,0,0-.61-.16.89.89,0,0,0-.59.18.59.59,0,0,0-.22.49.49.49,0,0,0,.17.41,1.23,1.23,0,0,0,.46.21l.48.12a1.73,1.73,0,0,1,.91.48,1,1,0,0,1,.32.73,1.08,1.08,0,0,1-.17.61,1.12,1.12,0,0,1-.5.43A1.85,1.85,0,0,1,50.43,43Z"/><path class="cls-4" d="M53.57,43a1.26,1.26,0,0,1-.83-.24.93.93,0,0,1,0-1.38,1.35,1.35,0,0,1,.86-.24h.83v.44h-.67a1,1,0,0,0-.59.13.44.44,0,0,0-.16.36.4.4,0,0,0,.15.33.74.74,0,0,0,.44.11.83.83,0,0,0,.43-.1.74.74,0,0,0,.28-.3.85.85,0,0,0,.1-.43h.2a1.54,1.54,0,0,1-.26,1A.91.91,0,0,1,53.57,43Zm.88-.07,0-.52v-1a1.75,1.75,0,0,0-.07-.55.71.71,0,0,0-.23-.34.7.7,0,0,0-.4-.11.78.78,0,0,0-.41.1.68.68,0,0,0-.28.3l-.51-.19a1.68,1.68,0,0,1,.27-.37,1.3,1.3,0,0,1,.39-.25,1.45,1.45,0,0,1,.54-.09,1.25,1.25,0,0,1,.7.17,1.06,1.06,0,0,1,.43.48,1.87,1.87,0,0,1,.13.79V43Z"/><path class="cls-4" d="M56.58,43l-1.25-3h.58l1.2,3Zm0,0,1.2-3h.6l-1.26,3Z"/><path class="cls-4" d="M60.12,43a1.5,1.5,0,0,1-.77-.2,1.3,1.3,0,0,1-.53-.56,1.62,1.62,0,0,1-.2-.81,1.69,1.69,0,0,1,.2-.82,1.34,1.34,0,0,1,.53-.55,1.41,1.41,0,0,1,.77-.2,1.35,1.35,0,0,1,.73.2,1.43,1.43,0,0,1,.49.59,2.09,2.09,0,0,1,.18.9H59.09l.11-.09a1.09,1.09,0,0,0,.13.55.79.79,0,0,0,.34.36,1,1,0,0,0,.49.12.87.87,0,0,0,.5-.14A.93.93,0,0,0,61,42l.49.23a1.39,1.39,0,0,1-.31.41,1.42,1.42,0,0,1-.46.28A1.76,1.76,0,0,1,60.12,43Zm-.88-1.81-.12-.09H61l-.11.09a.88.88,0,0,0-.11-.45.71.71,0,0,0-.28-.29.83.83,0,0,0-.41-.1.86.86,0,0,0-.41.1.75.75,0,0,0-.33.28A.78.78,0,0,0,59.24,41.22Z"/><path class="cls-4" d="M63.27,43a1.28,1.28,0,0,1-.71-.2,1.36,1.36,0,0,1-.48-.55,2.09,2.09,0,0,1,0-1.65,1.51,1.51,0,0,1,.48-.55,1.28,1.28,0,0,1,.71-.19,1.14,1.14,0,0,1,.66.19,1.37,1.37,0,0,1,.42.55,2.34,2.34,0,0,1,0,1.65,1.25,1.25,0,0,1-.42.55A1.14,1.14,0,0,1,63.27,43Zm.13-.51a.77.77,0,0,0,.45-.14.91.91,0,0,0,.29-.37,1.43,1.43,0,0,0,0-1.1.91.91,0,0,0-.29-.37.78.78,0,0,0-.46-.14.81.81,0,0,0-.46.14.89.89,0,0,0-.32.37,1.43,1.43,0,0,0,0,1.1,1,1,0,0,0,.32.37A.86.86,0,0,0,63.4,42.52Zm.88.44,0-.56V38.76h.57V43Z"/><circle class="cls-5" cx="20.33" cy="41.17" r="9.17"/><path class="cls-6" d="M20.33,32a9.17,9.17,0,1,1-6.7,2.91"/><path class="cls-4" d="M17.24,39.36a1.26,1.26,0,0,1,.6.13,1.19,1.19,0,0,1,.4.34,1.64,1.64,0,0,1,.23.52,3.2,3.2,0,0,1,.07.63,3.1,3.1,0,0,1-.09.76,2,2,0,0,1-.25.62,1.39,1.39,0,0,1-.44.43,1.29,1.29,0,0,1-.64.15,1.68,1.68,0,0,1-.54-.08,1.78,1.78,0,0,1-.46-.22l.33-.5a1.44,1.44,0,0,0,.33.16,1.39,1.39,0,0,0,.32.05.69.69,0,0,0,.61-.34,2,2,0,0,0,.2-1.06l.14.09a1.06,1.06,0,0,1-.35.43.92.92,0,0,1-.57.17,1.07,1.07,0,0,1-.59-.16,1.12,1.12,0,0,1-.4-.41,1.33,1.33,0,0,1-.14-.6,1.05,1.05,0,0,1,.15-.57,1.11,1.11,0,0,1,.43-.4A1.53,1.53,0,0,1,17.24,39.36Zm0,.57A.54.54,0,0,0,17,40a.45.45,0,0,0-.2.21.55.55,0,0,0-.08.29.61.61,0,0,0,.08.3A.45.45,0,0,0,17,41a.57.57,0,0,0,.58,0,.53.53,0,0,0,.21-.21.6.6,0,0,0,.07-.3.54.54,0,0,0-.07-.29.53.53,0,0,0-.21-.21A.54.54,0,0,0,17.24,39.93Z"/><path class="cls-4" d="M19,40.51v-.62a.48.48,0,0,0,.27-.06,1.54,1.54,0,0,0,.28-.19,1.32,1.32,0,0,0,.24-.23l.44.42a4.27,4.27,0,0,1-.38.36,1.61,1.61,0,0,1-.41.25A1,1,0,0,1,19,40.51Zm.73,2.37V39.77l.06-.36h.59v3.47Z"/><path class="cls-4" d="M21.81,41.05a.82.82,0,0,1-.42-.11.76.76,0,0,1-.28-.31.9.9,0,0,1-.11-.44,1,1,0,0,1,.1-.44.86.86,0,0,1,.29-.31.82.82,0,0,1,.42-.11.79.79,0,0,1,.7.42.87.87,0,0,1,.1.44.89.89,0,0,1-.1.44.84.84,0,0,1-.28.31A.82.82,0,0,1,21.81,41.05Zm-.57,1.83,2.46-3.47h.66l-2.48,3.47Zm.56-2.27a.29.29,0,0,0,.25-.12.5.5,0,0,0,0-.6.29.29,0,0,0-.25-.12.29.29,0,0,0-.24.12.54.54,0,0,0,0,.6A.29.29,0,0,0,21.8,40.61Zm2,2.34a.72.72,0,0,1-.41-.11.68.68,0,0,1-.28-.3,1,1,0,0,1,0-.89.7.7,0,0,1,.29-.3.82.82,0,0,1,.42-.11.81.81,0,0,1,.41.11.92.92,0,0,1,.29.3,1.06,1.06,0,0,1,.1.45,1.05,1.05,0,0,1-.1.44.76.76,0,0,1-.29.3A.73.73,0,0,1,23.81,43Zm0-.43a.29.29,0,0,0,.25-.12.53.53,0,0,0,.09-.3.49.49,0,0,0-.09-.3.29.29,0,0,0-.25-.12.29.29,0,0,0-.24.12.44.44,0,0,0-.1.3.47.47,0,0,0,.1.3A.29.29,0,0,0,23.81,42.52Z"/><path class="cls-4" d="M36.16,77.09a2.13,2.13,0,0,1-1.07-.28,2.08,2.08,0,0,1-.73-.77,2.41,2.41,0,0,1-.26-1.13,2.37,2.37,0,0,1,.26-1.12,2,2,0,0,1,.73-.77,2,2,0,0,1,1.06-.28,2,2,0,0,1,.74.14,2.44,2.44,0,0,1,.64.39,1.87,1.87,0,0,1,.43.58l-.53.24a1.43,1.43,0,0,0-.31-.42,1.82,1.82,0,0,0-.45-.29,1.55,1.55,0,0,0-.52-.1,1.37,1.37,0,0,0-.75.21,1.47,1.47,0,0,0-.52.58,2,2,0,0,0,0,1.7,1.41,1.41,0,0,0,1.28.78,1.31,1.31,0,0,0,.52-.11,1.47,1.47,0,0,0,.44-.31,1.55,1.55,0,0,0,.32-.44l.52.23a2,2,0,0,1-.42.61,2.26,2.26,0,0,1-.64.41A1.86,1.86,0,0,1,36.16,77.09Z"/><path class="cls-4" d="M39.92,77.09a1.48,1.48,0,0,1-.79-.21,1.36,1.36,0,0,1-.54-.55,1.68,1.68,0,0,1-.19-.82,1.64,1.64,0,0,1,.19-.81,1.45,1.45,0,0,1,.54-.56,1.51,1.51,0,0,1,.78-.2,1.57,1.57,0,0,1,.79.2,1.43,1.43,0,0,1,.53.56,1.64,1.64,0,0,1,.19.81,1.68,1.68,0,0,1-.19.82,1.34,1.34,0,0,1-.53.55A1.45,1.45,0,0,1,39.92,77.09Zm0-.53a.86.86,0,0,0,.48-.13.91.91,0,0,0,.33-.37,1.2,1.2,0,0,0,.12-.55,1.16,1.16,0,0,0-.12-.54.91.91,0,0,0-1.3-.37.91.91,0,0,0-.33.37,1.19,1.19,0,0,0-.12.54,1.2,1.2,0,0,0,.12.55.87.87,0,0,0,.82.5Z"/><path class="cls-4" d="M43.12,77.09a1.7,1.7,0,0,1-.57-.1,1.29,1.29,0,0,1-.42-.26,1.23,1.23,0,0,1-.25-.36l.49-.22a.86.86,0,0,0,.29.31.8.8,0,0,0,.43.12.87.87,0,0,0,.42-.1.31.31,0,0,0,0-.53.86.86,0,0,0-.36-.16l-.28-.07a1.58,1.58,0,0,1-.66-.34.75.75,0,0,1-.23-.52.85.85,0,0,1,.29-.68,1.23,1.23,0,0,1,.83-.24,1.53,1.53,0,0,1,.49.08,1.24,1.24,0,0,1,.39.22.83.83,0,0,1,.22.34l-.48.22a.49.49,0,0,0-.24-.27.88.88,0,0,0-.41-.08.61.61,0,0,0-.38.1.36.36,0,0,0-.14.29.27.27,0,0,0,.12.2,1,1,0,0,0,.35.15l.32.08a1.3,1.3,0,0,1,.49.22.88.88,0,0,1,.28.33.75.75,0,0,1,.1.38.78.78,0,0,1-.15.47,1,1,0,0,1-.4.31A1.5,1.5,0,0,1,43.12,77.09Z"/><path class="cls-4" d="M44.55,74.51V74h1.93v.5ZM46,77.09a.93.93,0,0,1-.69-.24.83.83,0,0,1-.25-.66V73.08h.57v3a.5.5,0,0,0,.11.34.44.44,0,0,0,.32.11.3.3,0,0,0,.13,0,.85.85,0,0,0,.18-.1l.21.45a1.15,1.15,0,0,1-.29.15A1,1,0,0,1,46,77.09Z"/><path class="cls-4" d="M48.61,77V74h.57v3ZM49,75.4a1.54,1.54,0,0,1,.18-.79,1.24,1.24,0,0,1,.48-.46,1.38,1.38,0,0,1,.62-.15v.54a1.7,1.7,0,0,0-.51.08.92.92,0,0,0-.4.27.74.74,0,0,0-.15.49Z"/><path class="cls-4" d="M52,77.09a1.41,1.41,0,0,1-.77-.21,1.34,1.34,0,0,1-.53-.55,1.68,1.68,0,0,1-.19-.82,1.64,1.64,0,0,1,.19-.81,1.43,1.43,0,0,1,.53-.56,1.56,1.56,0,0,1,.78-.2,1.25,1.25,0,0,1,.72.21,1.37,1.37,0,0,1,.49.59,2,2,0,0,1,.18.89H51l.11-.09a1.22,1.22,0,0,0,.13.56.88.88,0,0,0,.34.35,1,1,0,0,0,.49.13.8.8,0,0,0,.5-.15,1,1,0,0,0,.32-.35l.49.23a1.53,1.53,0,0,1-.31.41,1.46,1.46,0,0,1-.45.27A1.82,1.82,0,0,1,52,77.09Zm-.88-1.82L51,75.18h1.89l-.11.09a.84.84,0,0,0-.11-.45.71.71,0,0,0-.28-.29.92.92,0,0,0-.41-.1,1,1,0,0,0-.41.1.78.78,0,0,0-.33.29A.73.73,0,0,0,51.15,75.27Z"/><path class="cls-4" d="M55.18,77.09a1.28,1.28,0,0,1-.71-.2,1.33,1.33,0,0,1-.47-.55,1.81,1.81,0,0,1-.18-.83,1.77,1.77,0,0,1,.18-.82,1.26,1.26,0,0,1,1.18-.75,1.14,1.14,0,0,1,.66.2,1.26,1.26,0,0,1,.43.55,2.07,2.07,0,0,1,.15.82,2.12,2.12,0,0,1-.15.83,1.33,1.33,0,0,1-.43.55A1.14,1.14,0,0,1,55.18,77.09Zm.13-.52a.77.77,0,0,0,.45-.14,1,1,0,0,0,.3-.37,1.35,1.35,0,0,0,.1-.55,1.38,1.38,0,0,0-.1-.55,1.11,1.11,0,0,0-.3-.37.77.77,0,0,0-.45-.13.81.81,0,0,0-.47.13,1,1,0,0,0-.32.37,1.23,1.23,0,0,0-.11.55,1.35,1.35,0,0,0,.11.55,1,1,0,0,0,.32.37A.86.86,0,0,0,55.31,76.57Zm.88.44,0-.55V72.81h.57V77Z"/><path class="cls-4" d="M57.45,75.55V74H58v1.54Zm.57,0a1.69,1.69,0,0,0,.09.62.6.6,0,0,0,.26.3,1.12,1.12,0,0,0,.38.09.68.68,0,0,0,.57-.26,1.11,1.11,0,0,0,.2-.73h.25a2.23,2.23,0,0,1-.14.82,1.18,1.18,0,0,1-.4.52,1.07,1.07,0,0,1-.63.18,1.23,1.23,0,0,1-.61-.15.89.89,0,0,1-.4-.45,2,2,0,0,1-.14-.79v-.15ZM59.56,77l0-.55V74h.57v3Z"/><path class="cls-4" d="M62.25,77.09a1.48,1.48,0,0,1-.79-.21,1.33,1.33,0,0,1-.55-.55,1.68,1.68,0,0,1-.19-.82,1.64,1.64,0,0,1,.19-.81,1.45,1.45,0,0,1,.54-.56,1.6,1.6,0,0,1,.79-.2,1.51,1.51,0,0,1,.79.21,1.25,1.25,0,0,1,.53.58l-.52.21a.83.83,0,0,0-.33-.34.88.88,0,0,0-.49-.13.86.86,0,0,0-.48.13.91.91,0,0,0-.33.37,1.19,1.19,0,0,0-.12.54,1.13,1.13,0,0,0,.12.54.94.94,0,0,0,.34.37.91.91,0,0,0,.49.14.93.93,0,0,0,.49-.14.91.91,0,0,0,.32-.38l.52.21a1.3,1.3,0,0,1-.52.61A1.44,1.44,0,0,1,62.25,77.09Z"/><path class="cls-4" d="M65.46,77.09a1.47,1.47,0,0,1-1.3-.76,1.68,1.68,0,0,1-.19-.82,1.64,1.64,0,0,1,.19-.81,1.5,1.5,0,0,1,.53-.56,1.56,1.56,0,0,1,.78-.2,1.28,1.28,0,0,1,.73.21,1.44,1.44,0,0,1,.49.59,2.21,2.21,0,0,1,.17.89H64.44l.11-.09a1.22,1.22,0,0,0,.12.56,1,1,0,0,0,.34.35,1,1,0,0,0,.5.13.82.82,0,0,0,.5-.15,1,1,0,0,0,.31-.35l.49.23a1.53,1.53,0,0,1-.31.41,1.46,1.46,0,0,1-.45.27A1.78,1.78,0,0,1,65.46,77.09Zm-.88-1.82-.11-.09h1.89l-.1.09a.94.94,0,0,0-.11-.45.74.74,0,0,0-.29-.29.88.88,0,0,0-.4-.1,1,1,0,0,0-.42.1.91.91,0,0,0-.33.29A.8.8,0,0,0,64.58,75.27Z"/><path class="cls-4" d="M68.61,77.09a1.31,1.31,0,0,1-.71-.2,1.33,1.33,0,0,1-.47-.55,2,2,0,0,1-.17-.83,1.9,1.9,0,0,1,.17-.82,1.27,1.27,0,0,1,.47-.55,1.31,1.31,0,0,1,.71-.2,1.1,1.1,0,0,1,.66.2,1.2,1.2,0,0,1,.43.55,2.07,2.07,0,0,1,.15.82,2.12,2.12,0,0,1-.15.83,1.25,1.25,0,0,1-.43.55A1.1,1.1,0,0,1,68.61,77.09Zm.14-.52a.77.77,0,0,0,.44-.14.85.85,0,0,0,.3-.37,1.35,1.35,0,0,0,.11-.55,1.38,1.38,0,0,0-.11-.55.91.91,0,0,0-.3-.37.77.77,0,0,0-.45-.13.83.83,0,0,0-.47.13A1,1,0,0,0,68,75a1.38,1.38,0,0,0-.11.55,1.2,1.2,0,0,0,.12.55.89.89,0,0,0,.32.37A.82.82,0,0,0,68.75,76.57Zm.87.44,0-.55V72.81h.56V77Z"/><circle class="cls-5" cx="20.33" cy="75.22" r="9.17"/><path class="cls-6" d="M20.33,66.05a9.18,9.18,0,1,1-7.4,3.76"/><path class="cls-4" d="M16.89,77a1.88,1.88,0,0,1-.71-.12,1,1,0,0,1-.44-.34.84.84,0,0,1-.15-.5,1,1,0,0,1,.15-.54,1.06,1.06,0,0,1,.44-.36,1.56,1.56,0,0,1,.71-.13,1.53,1.53,0,0,1,.71.13,1.09,1.09,0,0,1,.45.36,1,1,0,0,1,.15.54.84.84,0,0,1-.15.5,1,1,0,0,1-.45.34A1.85,1.85,0,0,1,16.89,77Zm0-1.73a1.56,1.56,0,0,1-.64-.11,1,1,0,0,1-.41-.32.87.87,0,0,1-.14-.48.88.88,0,0,1,.14-.49,1,1,0,0,1,.41-.33,1.77,1.77,0,0,1,1.28,0,.91.91,0,0,1,.41.33.81.81,0,0,1,.15.49.81.81,0,0,1-.15.48,1,1,0,0,1-.41.32A1.56,1.56,0,0,1,16.89,75.26Zm0,1.17a.68.68,0,0,0,.44-.14.42.42,0,0,0,.18-.35.45.45,0,0,0-.18-.37.63.63,0,0,0-.44-.15.68.68,0,0,0-.32.07.46.46,0,0,0-.21.18.5.5,0,0,0-.08.27.47.47,0,0,0,.08.26.6.6,0,0,0,.21.17A.83.83,0,0,0,16.89,76.43Zm0-1.55a.56.56,0,0,0,.39-.13.39.39,0,0,0,.15-.32.45.45,0,0,0-.15-.35.61.61,0,0,0-.39-.13.58.58,0,0,0-.38.13.45.45,0,0,0-.15.35.39.39,0,0,0,.15.32A.53.53,0,0,0,16.89,74.88Z"/><path class="cls-4" d="M19.79,73.41a1.33,1.33,0,0,1,.6.13,1,1,0,0,1,.4.35,1.45,1.45,0,0,1,.23.52,2.48,2.48,0,0,1,.07.63,3.59,3.59,0,0,1-.08.75,2,2,0,0,1-.26.63,1.18,1.18,0,0,1-.44.42,1.26,1.26,0,0,1-.64.16,1.89,1.89,0,0,1-.53-.08,1.71,1.71,0,0,1-.47-.23L19,76.2a1.47,1.47,0,0,0,.34.15.93.93,0,0,0,.32.05.68.68,0,0,0,.6-.34,1.8,1.8,0,0,0,.2-1.06l.14.09a1,1,0,0,1-.35.44,1,1,0,0,1-.57.17,1.12,1.12,0,0,1-.58-.16,1,1,0,0,1-.4-.42,1.15,1.15,0,0,1-.15-.59,1,1,0,0,1,.16-.58,1,1,0,0,1,.43-.39A1.33,1.33,0,0,1,19.79,73.41Zm0,.57a.6.6,0,0,0-.29.08.55.55,0,0,0-.2.2.58.58,0,0,0-.07.3.6.6,0,0,0,.07.3.58.58,0,0,0,.2.21.59.59,0,0,0,.29.07.6.6,0,0,0,.3-.07.58.58,0,0,0,.2-.21.61.61,0,0,0,.08-.3.58.58,0,0,0-.08-.3.55.55,0,0,0-.2-.2A.61.61,0,0,0,19.79,74Z"/><path class="cls-4" d="M22.28,75.1a.82.82,0,0,1-.42-.11.73.73,0,0,1-.28-.3.93.93,0,0,1-.11-.44,1.06,1.06,0,0,1,.1-.45.76.76,0,0,1,.29-.3.86.86,0,0,1,.84,0,.81.81,0,0,1,.28.3.93.93,0,0,1,.1.45.92.92,0,0,1-.1.44.81.81,0,0,1-.28.3A.82.82,0,0,1,22.28,75.1Zm-.57,1.83,2.46-3.46h.66l-2.48,3.46Zm.56-2.26a.28.28,0,0,0,.25-.13.43.43,0,0,0,.1-.29.44.44,0,0,0-.1-.3.29.29,0,0,0-.25-.12A.29.29,0,0,0,22,74a.49.49,0,0,0-.09.3.48.48,0,0,0,.09.29A.27.27,0,0,0,22.27,74.67Zm2,2.34a.81.81,0,0,1-.41-.11.76.76,0,0,1-.28-.31.9.9,0,0,1-.11-.44,1,1,0,0,1,.1-.44.86.86,0,0,1,.29-.31.82.82,0,0,1,.42-.11.73.73,0,0,1,.41.12.76.76,0,0,1,.29.3.87.87,0,0,1,.1.44.89.89,0,0,1-.1.44.86.86,0,0,1-.29.31A.82.82,0,0,1,24.28,77Zm0-.44a.29.29,0,0,0,.25-.12.54.54,0,0,0,0-.6.29.29,0,0,0-.25-.12.29.29,0,0,0-.24.12.5.5,0,0,0,0,.6A.29.29,0,0,0,24.28,76.57Z"/><circle class="cls-5" cx="20.33" cy="109.43" r="9.17"/><path class="cls-6" d="M20.33,100.26a9.18,9.18,0,1,1-5.8,2.07"/><path class="cls-4" d="M16.85,107.62a1.2,1.2,0,0,1,.59.13,1,1,0,0,1,.4.35,1.4,1.4,0,0,1,.23.51,2.59,2.59,0,0,1,.07.63,3.11,3.11,0,0,1-.08.76,2,2,0,0,1-.26.62,1.36,1.36,0,0,1-.43.43,1.33,1.33,0,0,1-.65.15,1.59,1.59,0,0,1-.53-.08,1.84,1.84,0,0,1-.47-.22l.33-.5a1.5,1.5,0,0,0,.34.16,1.32,1.32,0,0,0,.32,0,.66.66,0,0,0,.6-.34,1.89,1.89,0,0,0,.21-1.06l.13.09a1,1,0,0,1-.35.44,1,1,0,0,1-.57.16,1.07,1.07,0,0,1-1-.57,1.19,1.19,0,0,1-.15-.6,1.08,1.08,0,0,1,.16-.57,1,1,0,0,1,.43-.4A1.53,1.53,0,0,1,16.85,107.62Zm0,.57a.6.6,0,0,0-.3.07.58.58,0,0,0-.2.21.54.54,0,0,0-.07.29.62.62,0,0,0,.07.31.64.64,0,0,0,.2.2.61.61,0,0,0,.3.08.57.57,0,0,0,.29-.08.64.64,0,0,0,.2-.2.53.53,0,0,0,.08-.31.47.47,0,0,0-.08-.29.58.58,0,0,0-.2-.21A.57.57,0,0,0,16.85,108.19Z"/><path class="cls-4" d="M19.77,111.2a1.73,1.73,0,0,1-.49-.08,1.4,1.4,0,0,1-.45-.24.87.87,0,0,1-.29-.39l.62-.18a.71.71,0,0,0,.26.23.68.68,0,0,0,.31.08.61.61,0,0,0,.42-.16.62.62,0,0,0,0-.82.57.57,0,0,0-.42-.17.55.55,0,0,0-.28.07.67.67,0,0,0-.2.16l-.61-.13.21-1.89h2v.61H19.44l-.1.83a1.34,1.34,0,0,1,.3-.12,1,1,0,0,1,.35,0,1,1,0,0,1,.51.13,1,1,0,0,1,.37.37A1.1,1.1,0,0,1,21,110a1.15,1.15,0,0,1-.16.62,1.09,1.09,0,0,1-.43.42A1.36,1.36,0,0,1,19.77,111.2Z"/><path class="cls-4" d="M22.2,109.31a.82.82,0,0,1-.42-.11.84.84,0,0,1-.28-.31,1,1,0,0,1,0-.88.76.76,0,0,1,.28-.31.82.82,0,0,1,.42-.1.76.76,0,0,1,.7.41,1,1,0,0,1,0,.88.84.84,0,0,1-.28.31A.82.82,0,0,1,22.2,109.31Zm-.56,1.83,2.46-3.46h.65l-2.47,3.46Zm.56-2.27a.32.32,0,0,0,.25-.12.49.49,0,0,0,.09-.3.44.44,0,0,0-.09-.29.32.32,0,0,0-.5,0,.44.44,0,0,0-.09.29.49.49,0,0,0,.09.3A.32.32,0,0,0,22.2,108.87Zm2,2.34a.76.76,0,0,1-.7-.41.93.93,0,0,1-.11-.44.94.94,0,0,1,.11-.45.68.68,0,0,1,.28-.3.82.82,0,0,1,.42-.11.78.78,0,0,1,.41.11.83.83,0,0,1,.29.3.93.93,0,0,1,.1.45.92.92,0,0,1-.1.44.7.7,0,0,1-.29.3A.72.72,0,0,1,24.21,111.21Zm0-.43a.29.29,0,0,0,.24-.12.5.5,0,0,0,0-.6.29.29,0,0,0-.24-.12.32.32,0,0,0-.25.12.55.55,0,0,0,0,.6A.32.32,0,0,0,24.21,110.78Z"/><path class="cls-4" d="M36.16,111.29a2,2,0,0,1-1.07-.28,2,2,0,0,1-.73-.76,2.44,2.44,0,0,1-.26-1.13,2.37,2.37,0,0,1,.26-1.12,1.94,1.94,0,0,1,.73-.77,2,2,0,0,1,1.06-.28,2,2,0,0,1,.74.14,2,2,0,0,1,.64.39,1.87,1.87,0,0,1,.43.58l-.53.24a1.35,1.35,0,0,0-.31-.43,1.78,1.78,0,0,0-.45-.28,1.34,1.34,0,0,0-.52-.1,1.37,1.37,0,0,0-.75.21,1.51,1.51,0,0,0-.52.57,1.93,1.93,0,0,0-.18.85,1.8,1.8,0,0,0,.19.85,1.4,1.4,0,0,0,.52.58,1.38,1.38,0,0,0,.76.21,1.31,1.31,0,0,0,.52-.11,1.67,1.67,0,0,0,.44-.31,1.6,1.6,0,0,0,.32-.45l.52.24a1.81,1.81,0,0,1-.42.6,2.17,2.17,0,0,1-.63.42A2.14,2.14,0,0,1,36.16,111.29Z"/><path class="cls-4" d="M39.53,111.29a1.26,1.26,0,0,1-.83-.24.93.93,0,0,1,0-1.38,1.37,1.37,0,0,1,.86-.24h.83v.45h-.67a1,1,0,0,0-.59.13.41.41,0,0,0-.16.35.4.4,0,0,0,.15.33.75.75,0,0,0,.45.12.82.82,0,0,0,.42-.11.68.68,0,0,0,.28-.3.86.86,0,0,0,.11-.43h.19a1.59,1.59,0,0,1-.26,1A.93.93,0,0,1,39.53,111.29Zm.88-.07,0-.52v-1a1.73,1.73,0,0,0-.08-.55.58.58,0,0,0-.23-.33.62.62,0,0,0-.4-.12.78.78,0,0,0-.41.1.68.68,0,0,0-.28.3l-.51-.19a2.07,2.07,0,0,1,.27-.37,1.3,1.3,0,0,1,.39-.25,1.49,1.49,0,0,1,.54-.09,1.31,1.31,0,0,1,.71.17,1.1,1.1,0,0,1,.42.48,1.87,1.87,0,0,1,.13.79v1.63Z"/><path class="cls-4" d="M41.66,111.22v-3h.54l0,.55v2.45Zm2.08-1.54a1.69,1.69,0,0,0-.09-.62.58.58,0,0,0-.26-.29.79.79,0,0,0-.38-.09.67.67,0,0,0-.57.25,1.15,1.15,0,0,0-.21.73H42a2,2,0,0,1,.14-.81,1.12,1.12,0,0,1,.4-.52,1.05,1.05,0,0,1,.62-.18,1.35,1.35,0,0,1,.62.14,1,1,0,0,1,.4.45,2,2,0,0,1,.14.79v.15Zm0,1.54v-1.54h.57v1.54Z"/><path class="cls-4" d="M46.22,111.29a1.21,1.21,0,0,1-.71-.2,1.29,1.29,0,0,1-.48-.55,1.9,1.9,0,0,1-.17-.82,1.87,1.87,0,0,1,.17-.82,1.29,1.29,0,0,1,.48-.55,1.21,1.21,0,0,1,.71-.2,1,1,0,0,1,.65.2,1.2,1.2,0,0,1,.43.55,2,2,0,0,1,.15.82,2.07,2.07,0,0,1-.15.82,1.2,1.2,0,0,1-.43.55A1,1,0,0,1,46.22,111.29Zm.13-.51a.72.72,0,0,0,.44-.14.85.85,0,0,0,.3-.37,1.43,1.43,0,0,0,0-1.1.85.85,0,0,0-.3-.37.73.73,0,0,0-.45-.14.81.81,0,0,0-.46.14.83.83,0,0,0-.32.37,1.32,1.32,0,0,0,0,1.1,1,1,0,0,0,.32.37A.84.84,0,0,0,46.35,110.78Zm.88.44,0-.56V107h.57v4.2Z"/><path class="cls-4" d="M48.88,107.58a.34.34,0,0,1-.34-.34.33.33,0,0,1,.1-.25.37.37,0,0,1,.24-.1.34.34,0,0,1,.34.35.33.33,0,0,1-.1.24A.3.3,0,0,1,48.88,107.58Zm-.29,3.64v-3h.57v3Z"/><path class="cls-4" d="M51.19,111.29a1.24,1.24,0,0,1-.72-.2,1.27,1.27,0,0,1-.47-.55,1.9,1.9,0,0,1-.17-.82,1.87,1.87,0,0,1,.17-.82,1.27,1.27,0,0,1,.47-.55,1.24,1.24,0,0,1,.72-.2,1,1,0,0,1,.65.2,1.2,1.2,0,0,1,.43.55,2,2,0,0,1,.15.82,2.07,2.07,0,0,1-.15.82,1.2,1.2,0,0,1-.43.55A1,1,0,0,1,51.19,111.29Zm.13-.51a.74.74,0,0,0,.44-.14.85.85,0,0,0,.3-.37,1.43,1.43,0,0,0,0-1.1.85.85,0,0,0-.3-.37.77.77,0,0,0-.45-.14.85.85,0,0,0-.78.51,1.32,1.32,0,0,0,0,1.1.89.89,0,0,0,.32.37A.84.84,0,0,0,51.32,110.78Zm.87.44,0-.56V107h.56v4.2Z"/><path class="cls-4" d="M54.49,111.29a1.31,1.31,0,0,1-.84-.24.85.85,0,0,1-.29-.68.83.83,0,0,1,.31-.7,1.35,1.35,0,0,1,.86-.24h.83v.45h-.68a1,1,0,0,0-.58.13.41.41,0,0,0-.17.35.41.41,0,0,0,.16.33.74.74,0,0,0,.44.12.83.83,0,0,0,.43-.11.74.74,0,0,0,.28-.3.85.85,0,0,0,.1-.43h.2a1.66,1.66,0,0,1-.26,1A.93.93,0,0,1,54.49,111.29Zm.88-.07,0-.52v-1a1.75,1.75,0,0,0-.07-.55.62.62,0,0,0-.63-.45.76.76,0,0,0-.41.1.68.68,0,0,0-.28.3l-.51-.19a1.41,1.41,0,0,1,.27-.37,1.3,1.3,0,0,1,.39-.25,1.45,1.45,0,0,1,.54-.09,1.25,1.25,0,0,1,.7.17,1.06,1.06,0,0,1,.43.48,1.87,1.87,0,0,1,.13.79v1.63Z"/><path class="cls-4" d="M56.33,108.71v-.49h1.93v.49Zm1.45,2.58a1,1,0,0,1-.7-.23.86.86,0,0,1-.24-.66v-3.12h.57v3a.44.44,0,0,0,.11.34.41.41,0,0,0,.32.12l.13,0a.85.85,0,0,0,.18-.1l.21.44a1.05,1.05,0,0,1-.3.15A.66.66,0,0,1,57.78,111.29Z"/><path class="cls-4" d="M60.25,111.29a1.44,1.44,0,0,1-1.3-.75,1.86,1.86,0,0,1,0-1.64,1.4,1.4,0,0,1,.53-.55,1.56,1.56,0,0,1,.78-.2,1.25,1.25,0,0,1,.72.21,1.34,1.34,0,0,1,.49.58,2.13,2.13,0,0,1,.18.9H59.23l.1-.09a1.18,1.18,0,0,0,.13.55.85.85,0,0,0,.34.36,1,1,0,0,0,.49.12.8.8,0,0,0,.5-.14.93.93,0,0,0,.32-.36l.49.23a1.27,1.27,0,0,1-.31.41,1.48,1.48,0,0,1-.45.28A1.83,1.83,0,0,1,60.25,111.29Zm-.88-1.81-.11-.09h1.89l-.11.09a.88.88,0,0,0-.1-.45.81.81,0,0,0-.29-.29.79.79,0,0,0-.4-.1.87.87,0,0,0-.42.1.83.83,0,0,0-.33.28A.78.78,0,0,0,59.37,109.48Z"/><path class="cls-4" d="M63.29,111.29a1.7,1.7,0,0,1-.57-.09,1.25,1.25,0,0,1-.42-.26,1,1,0,0,1-.25-.37l.49-.21a.82.82,0,0,0,.71.42.91.91,0,0,0,.43-.09.32.32,0,0,0,.17-.27.34.34,0,0,0-.13-.27,1.09,1.09,0,0,0-.37-.15l-.28-.08a1.38,1.38,0,0,1-.65-.34.71.71,0,0,1-.23-.51.83.83,0,0,1,.28-.68,1.28,1.28,0,0,1,.84-.24,1.29,1.29,0,0,1,.49.08,1,1,0,0,1,.38.22.71.71,0,0,1,.23.34l-.48.22a.51.51,0,0,0-.25-.27.84.84,0,0,0-.4-.09.61.61,0,0,0-.38.11.34.34,0,0,0-.14.29.24.24,0,0,0,.12.19.77.77,0,0,0,.34.16l.33.07a1.52,1.52,0,0,1,.48.22,1,1,0,0,1,.29.33.9.9,0,0,1,.1.38.81.81,0,0,1-.15.48.94.94,0,0,1-.4.3A1.36,1.36,0,0,1,63.29,111.29Z"/><path class="cls-4" d="M67.55,111.29a1.66,1.66,0,0,1-.57-.09,1.25,1.25,0,0,1-.42-.26,1,1,0,0,1-.25-.37l.49-.21a.79.79,0,0,0,.71.42.91.91,0,0,0,.43-.09.31.31,0,0,0,.16-.27.33.33,0,0,0-.12-.27,1.18,1.18,0,0,0-.37-.15l-.28-.08a1.38,1.38,0,0,1-.65-.34.71.71,0,0,1-.23-.51.83.83,0,0,1,.28-.68,1.26,1.26,0,0,1,.83-.24,1.31,1.31,0,0,1,.5.08,1,1,0,0,1,.38.22.79.79,0,0,1,.23.34l-.48.22a.51.51,0,0,0-.25-.27.84.84,0,0,0-.4-.09.59.59,0,0,0-.38.11.32.32,0,0,0-.14.29.24.24,0,0,0,.12.19.77.77,0,0,0,.34.16l.33.07a1.52,1.52,0,0,1,.48.22,1,1,0,0,1,.29.33.9.9,0,0,1,.1.38.81.81,0,0,1-.15.48.94.94,0,0,1-.4.3A1.36,1.36,0,0,1,67.55,111.29Z"/><path class="cls-4" d="M70.23,111.29a1.28,1.28,0,0,1-.83-.24.93.93,0,0,1,0-1.38,1.37,1.37,0,0,1,.86-.24h.83v.45h-.67a.94.94,0,0,0-.58.13.39.39,0,0,0-.17.35.38.38,0,0,0,.16.33.7.7,0,0,0,.44.12.82.82,0,0,0,.42-.11.68.68,0,0,0,.28-.3.86.86,0,0,0,.11-.43h.2a1.59,1.59,0,0,1-.27,1A.93.93,0,0,1,70.23,111.29Zm.88-.07,0-.52v-1a1.73,1.73,0,0,0-.08-.55.58.58,0,0,0-.23-.33.62.62,0,0,0-.4-.12.78.78,0,0,0-.41.1.74.74,0,0,0-.28.3l-.5-.19a1.41,1.41,0,0,1,.27-.37,1.09,1.09,0,0,1,.39-.25,1.4,1.4,0,0,1,.53-.09,1.31,1.31,0,0,1,.71.17,1,1,0,0,1,.42.48,1.87,1.87,0,0,1,.13.79v1.63Z"/><path class="cls-4" d="M72.07,108.71v-.49H74v.49Zm1.45,2.58a.93.93,0,0,1-.69-.23.83.83,0,0,1-.25-.66v-3.12h.57v3a.48.48,0,0,0,.11.34.42.42,0,0,0,.32.12l.14,0,.17-.1.22.44a1.39,1.39,0,0,1-.3.15A.74.74,0,0,1,73.52,111.29Z"/><path class="cls-4" d="M75,107.58a.33.33,0,0,1-.24-.1.37.37,0,0,1-.1-.24.37.37,0,0,1,.1-.25.37.37,0,0,1,.24-.1.37.37,0,0,1,.25.1.37.37,0,0,1,.09.25.36.36,0,0,1-.09.24A.33.33,0,0,1,75,107.58Zm-.28,3.64v-3h.56v3Z"/><path class="cls-4" d="M77.18,111.29a1.6,1.6,0,0,1-.56-.09,1.25,1.25,0,0,1-.42-.26,1,1,0,0,1-.26-.37l.49-.21a.83.83,0,0,0,.29.3.8.8,0,0,0,.43.12.87.87,0,0,0,.42-.09.3.3,0,0,0,.17-.27.31.31,0,0,0-.13-.27,1,1,0,0,0-.36-.15l-.28-.08a1.38,1.38,0,0,1-.65-.34.68.68,0,0,1-.24-.51.83.83,0,0,1,.29-.68,1.23,1.23,0,0,1,.83-.24,1.35,1.35,0,0,1,.5.08,1,1,0,0,1,.38.22.69.69,0,0,1,.22.34l-.48.22a.49.49,0,0,0-.24-.27.88.88,0,0,0-.41-.09.61.61,0,0,0-.38.11.34.34,0,0,0-.14.29.24.24,0,0,0,.12.19.82.82,0,0,0,.35.16l.32.07a1.48,1.48,0,0,1,.49.22,1.07,1.07,0,0,1,.28.33.77.77,0,0,1,.1.38.81.81,0,0,1-.15.48.88.88,0,0,1-.4.3A1.34,1.34,0,0,1,77.18,111.29Z"/><path class="cls-4" d="M78.67,108.69v-.47H80.6v.47Zm.53,2.53v-3.33a1,1,0,0,1,.23-.72.9.9,0,0,1,.69-.24,1.17,1.17,0,0,1,.3,0,2.19,2.19,0,0,1,.33.12l-.21.44-.22-.09-.16,0a.35.35,0,0,0-.29.13.71.71,0,0,0-.1.4v3.27Z"/><path class="cls-4" d="M81.48,107.58a.33.33,0,0,1-.24-.1.37.37,0,0,1-.1-.24.37.37,0,0,1,.1-.25.37.37,0,0,1,.24-.1.34.34,0,0,1,.35.35.37.37,0,0,1-.1.24A.33.33,0,0,1,81.48,107.58Zm-.28,3.64v-3h.57v3Z"/><path class="cls-4" d="M83.93,111.29a1.44,1.44,0,0,1-.78-.2,1.47,1.47,0,0,1-.53-.55,1.86,1.86,0,0,1,0-1.64,1.43,1.43,0,0,1,.54-.55,1.5,1.5,0,0,1,.77-.2,1.28,1.28,0,0,1,.73.21,1.34,1.34,0,0,1,.49.58,2.13,2.13,0,0,1,.17.9H82.9l.11-.09a1.18,1.18,0,0,0,.12.55.87.87,0,0,0,.35.36,1,1,0,0,0,.49.12.8.8,0,0,0,.5-.14.9.9,0,0,0,.31-.36l.5.23a1.3,1.3,0,0,1-.32.41,1.28,1.28,0,0,1-.45.28A1.76,1.76,0,0,1,83.93,111.29ZM83,109.48l-.11-.09h1.9l-.11.09a.88.88,0,0,0-.11-.45.74.74,0,0,0-.29-.29.77.77,0,0,0-.4-.1.92.92,0,0,0-.42.1,1,1,0,0,0-.33.28A.86.86,0,0,0,83,109.48Z"/><path class="cls-4" d="M87.08,111.29a1.19,1.19,0,0,1-.71-.2,1.29,1.29,0,0,1-.48-.55,1.9,1.9,0,0,1-.17-.82,1.87,1.87,0,0,1,.17-.82,1.29,1.29,0,0,1,.48-.55,1.19,1.19,0,0,1,.71-.2,1,1,0,0,1,.65.2,1.2,1.2,0,0,1,.43.55,2,2,0,0,1,.15.82,2.07,2.07,0,0,1-.15.82,1.2,1.2,0,0,1-.43.55A1,1,0,0,1,87.08,111.29Zm.13-.51a.74.74,0,0,0,.44-.14.85.85,0,0,0,.3-.37,1.43,1.43,0,0,0,0-1.1.85.85,0,0,0-.3-.37.77.77,0,0,0-.45-.14.85.85,0,0,0-.78.51,1.32,1.32,0,0,0,0,1.1.89.89,0,0,0,.32.37A.84.84,0,0,0,87.21,110.78Zm.87.44,0-.56V107h.56v4.2Z"/><rect class="cls-4" x="89.4" y="5.86" width="10.8" height="0.82" rx="0.41"/><rect class="cls-4" x="89.4" y="7.85" width="10.8" height="0.82" rx="0.41"/><rect class="cls-4" x="89.4" y="9.84" width="10.8" height="0.82" rx="0.41"/></g></g></svg>