<svg width="36" height="36" viewBox="0 0 36 36" fill="none" xmlns="http://www.w3.org/2000/svg">
<path d="M18 30V33" stroke="#2A2564" stroke-width="1.5" stroke-linecap="round" stroke-linejoin="round"/>
<path d="M18 3V6" stroke="#2A2564" stroke-width="1.5" stroke-linecap="round" stroke-linejoin="round"/>
<path d="M25.5 30V33" stroke="#2A2564" stroke-width="1.5" stroke-linecap="round" stroke-linejoin="round"/>
<path d="M25.5 3V6" stroke="#2A2564" stroke-width="1.5" stroke-linecap="round" stroke-linejoin="round"/>
<path d="M3 18H6" stroke="#2A2564" stroke-width="1.5" stroke-linecap="round" stroke-linejoin="round"/>
<path d="M3 25.5H6" stroke="#2A2564" stroke-width="1.5" stroke-linecap="round" stroke-linejoin="round"/>
<path d="M3 10.5H6" stroke="#2A2564" stroke-width="1.5" stroke-linecap="round" stroke-linejoin="round"/>
<path d="M30 18H33" stroke="#2A2564" stroke-width="1.5" stroke-linecap="round" stroke-linejoin="round"/>
<path d="M30 25.5H33" stroke="#2A2564" stroke-width="1.5" stroke-linecap="round" stroke-linejoin="round"/>
<path d="M30 10.5H33" stroke="#2A2564" stroke-width="1.5" stroke-linecap="round" stroke-linejoin="round"/>
<path d="M10.5 30V33" stroke="#2A2564" stroke-width="1.5" stroke-linecap="round" stroke-linejoin="round"/>
<path d="M10.5 3V6" stroke="#2A2564" stroke-width="1.5" stroke-linecap="round" stroke-linejoin="round"/>
<path d="M27 6H9C7.34315 6 6 7.34315 6 9V27C6 28.6569 7.34315 30 9 30H27C28.6569 30 30 28.6569 30 27V9C30 7.34315 28.6569 6 27 6Z" stroke="#2A2564" stroke-width="1.5" stroke-linecap="round" stroke-linejoin="round"/>
<path d="M22.5 12H13.5C12.6716 12 12 12.6716 12 13.5V22.5C12 23.3284 12.6716 24 13.5 24H22.5C23.3284 24 24 23.3284 24 22.5V13.5C24 12.6716 23.3284 12 22.5 12Z" stroke="#2A2564" stroke-width="1.5" stroke-linecap="round" stroke-linejoin="round"/>
</svg>
