<svg width="40" height="36" viewBox="0 0 40 36" fill="none" xmlns="http://www.w3.org/2000/svg">
<g clip-path="url(#clip0_38_2510)">
<path d="M38.618 12.7733H1.3818C1.14078 12.7733 0.945435 12.5771 0.945435 12.335V7.9063C0.945435 6.62158 1.98587 5.57642 3.26478 5.57642H36.735C38.0139 5.57642 39.0544 6.62158 39.0544 7.9063V12.335C39.0544 12.5771 38.859 12.7733 38.618 12.7733ZM1.81816 11.8967H38.1816V7.9063C38.1816 7.10501 37.5327 6.45311 36.735 6.45311H3.26478C2.46711 6.45311 1.81816 7.10501 1.81816 7.9063V11.8967Z" fill="#2A2564"/>
<path d="M36.8222 30.4238H3.26471C1.98587 30.4238 0.945435 29.3786 0.945435 28.0939V12.3351C0.945435 12.093 1.14085 11.8967 1.3818 11.8967H38.6182C38.8591 11.8967 39.0545 12.093 39.0545 12.3351V28.1813C39.0545 29.4178 38.0531 30.4238 36.8222 30.4238ZM1.81816 12.7734V28.0939C1.81816 28.8952 2.46711 29.5471 3.26471 29.5471H36.8222C37.5719 29.5471 38.1818 28.9343 38.1818 28.1813V12.7734H1.81816Z" fill="#2A2564"/>
<path d="M6.38507 10.5798H4.46078C4.21983 10.5798 4.02441 10.3835 4.02441 10.1415V8.20837C4.02441 7.96633 4.21983 7.77002 4.46078 7.77002H6.38507C6.62601 7.77002 6.82143 7.96633 6.82143 8.20837V10.1415C6.82143 10.3836 6.62609 10.5798 6.38507 10.5798ZM4.89714 9.70313H5.9487V8.64671H4.89714V9.70313Z" fill="#2A2564"/>
<path d="M11.0035 10.5798H9.07919C8.83824 10.5798 8.64282 10.3835 8.64282 10.1415V8.20837C8.64282 7.96633 8.83824 7.77002 9.07919 7.77002H11.0035C11.2445 7.77002 11.4399 7.96633 11.4399 8.20837V10.1415C11.4399 10.3836 11.2446 10.5798 11.0035 10.5798ZM9.51555 9.70313H10.5672V8.64671H9.51555V9.70313Z" fill="#2A2564"/>
<path d="M15.622 10.5798H13.6976C13.4566 10.5798 13.2612 10.3835 13.2612 10.1415V8.20837C13.2612 7.96633 13.4566 7.77002 13.6976 7.77002H15.622C15.8629 7.77002 16.0583 7.96633 16.0583 8.20837V10.1415C16.0583 10.3836 15.8629 10.5798 15.622 10.5798ZM14.134 9.70313H15.1856V8.64671H14.134V9.70313Z" fill="#2A2564"/>
<path d="M22.0363 30.4199C21.7954 30.4199 21.5999 30.2235 21.5999 29.9815V19.7534H18.3999V29.9815C18.3999 30.2235 18.2045 30.4199 17.9636 30.4199C17.7226 30.4199 17.5272 30.2235 17.5272 29.9815V19.3151C17.5272 19.073 17.7226 18.8767 17.9636 18.8767H22.0363C22.2773 18.8767 22.4727 19.073 22.4727 19.3151V29.9815C22.4727 30.2235 22.2773 30.4199 22.0363 30.4199Z" fill="#2A2564"/>
<path d="M28.7272 30.4198C28.4863 30.4198 28.2909 30.2235 28.2909 29.9815V21.2876H25.0909V29.9815C25.0909 30.2235 24.8954 30.4198 24.6545 30.4198C24.4136 30.4198 24.2181 30.2235 24.2181 29.9815V20.8492C24.2181 20.6072 24.4136 20.4109 24.6545 20.4109H28.7272C28.9682 20.4109 29.1636 20.6072 29.1636 20.8492V29.9815C29.1636 30.2235 28.9682 30.4198 28.7272 30.4198Z" fill="#2A2564"/>
<path d="M35.4181 30.4199C35.1772 30.4199 34.9818 30.2236 34.9818 29.9816V17.5618H31.7818V29.9816C31.7818 30.2236 31.5864 30.4199 31.3454 30.4199C31.1045 30.4199 30.9091 30.2236 30.9091 29.9816V17.1234C30.9091 16.8814 31.1045 16.6851 31.3454 16.6851H35.4181C35.6591 16.6851 35.8545 16.8814 35.8545 17.1234V29.9816C35.8545 30.2236 35.6591 30.4199 35.4181 30.4199Z" fill="#2A2564"/>
<path d="M38.618 12.7733H1.3818C1.14078 12.7733 0.945435 12.5771 0.945435 12.335V7.9063C0.945435 6.62158 1.98587 5.57642 3.26478 5.57642H36.735C38.0139 5.57642 39.0544 6.62158 39.0544 7.9063V12.335C39.0544 12.5771 38.859 12.7733 38.618 12.7733ZM1.81816 11.8967H38.1816V7.9063C38.1816 7.10501 37.5327 6.45311 36.735 6.45311H3.26478C2.46711 6.45311 1.81816 7.10501 1.81816 7.9063V11.8967Z" fill="#2A2564"/>
<path d="M6.38507 10.5798H4.46078C4.21983 10.5798 4.02441 10.3835 4.02441 10.1415V8.20837C4.02441 7.96633 4.21983 7.77002 4.46078 7.77002H6.38507C6.62601 7.77002 6.82143 7.96633 6.82143 8.20837V10.1415C6.82143 10.3836 6.62609 10.5798 6.38507 10.5798ZM4.89714 9.70313H5.9487V8.64671H4.89714V9.70313Z" fill="#2A2564"/>
<path d="M11.0035 10.5798H9.07919C8.83824 10.5798 8.64282 10.3835 8.64282 10.1415V8.20837C8.64282 7.96633 8.83824 7.77002 9.07919 7.77002H11.0035C11.2445 7.77002 11.4399 7.96633 11.4399 8.20837V10.1415C11.4399 10.3836 11.2446 10.5798 11.0035 10.5798ZM9.51555 9.70313H10.5672V8.64671H9.51555V9.70313Z" fill="#2A2564"/>
<path d="M15.622 10.5798H13.6976C13.4566 10.5798 13.2612 10.3835 13.2612 10.1415V8.20837C13.2612 7.96633 13.4566 7.77002 13.6976 7.77002H15.622C15.8629 7.77002 16.0583 7.96633 16.0583 8.20837V10.1415C16.0583 10.3836 15.8629 10.5798 15.622 10.5798ZM14.134 9.70313H15.1856V8.64671H14.134V9.70313Z" fill="#2A2564"/>
<path d="M22.0363 30.4199C21.7954 30.4199 21.5999 30.2235 21.5999 29.9815V19.7534H18.3999V29.9815C18.3999 30.2235 18.2045 30.4199 17.9636 30.4199C17.7226 30.4199 17.5272 30.2235 17.5272 29.9815V19.3151C17.5272 19.073 17.7226 18.8767 17.9636 18.8767H22.0363C22.2773 18.8767 22.4727 19.073 22.4727 19.3151V29.9815C22.4727 30.2235 22.2773 30.4199 22.0363 30.4199Z" fill="#2A2564"/>
<path d="M28.7272 30.4198C28.4863 30.4198 28.2909 30.2235 28.2909 29.9815V21.2876H25.0909V29.9815C25.0909 30.2235 24.8954 30.4198 24.6545 30.4198C24.4136 30.4198 24.2181 30.2235 24.2181 29.9815V20.8492C24.2181 20.6072 24.4136 20.4109 24.6545 20.4109H28.7272C28.9682 20.4109 29.1636 20.6072 29.1636 20.8492V29.9815C29.1636 30.2235 28.9682 30.4198 28.7272 30.4198Z" fill="#2A2564"/>
<path d="M35.4181 30.4199C35.1772 30.4199 34.9818 30.2236 34.9818 29.9816V17.5618H31.7818V29.9816C31.7818 30.2236 31.5864 30.4199 31.3454 30.4199C31.1045 30.4199 30.9091 30.2236 30.9091 29.9816V17.1234C30.9091 16.8814 31.1045 16.6851 31.3454 16.6851H35.4181C35.6591 16.6851 35.8545 16.8814 35.8545 17.1234V29.9816C35.8545 30.2236 35.6591 30.4199 35.4181 30.4199Z" fill="#2A2564"/>
<path d="M9.67273 26.4747C6.5448 26.4747 4 23.9184 4 20.7761C4 17.634 6.5448 15.0776 9.67273 15.0776C12.8007 15.0776 15.3455 17.634 15.3455 20.7761C15.3455 23.9184 12.8007 26.4747 9.67273 26.4747ZM9.67273 15.9543C7.02596 15.9543 4.87273 18.1174 4.87273 20.7761C4.87273 23.4349 7.02596 25.598 9.67273 25.598C12.3195 25.598 14.4727 23.4349 14.4727 20.7761C14.4727 18.1174 12.3195 15.9543 9.67273 15.9543Z" fill="#2A2564"/>
<path d="M7.02621 25.7543C6.9513 25.7543 6.87544 25.7349 6.80613 25.6942C6.59821 25.5718 6.52832 25.3033 6.65006 25.0945L9.23639 20.6573V15.516C9.23639 15.2739 9.43181 15.0776 9.67275 15.0776C9.9137 15.0776 10.1091 15.2739 10.1091 15.516V20.7761C10.1091 20.854 10.0885 20.9304 10.0493 20.9976L7.40323 25.5373C7.32206 25.6767 7.1761 25.7543 7.02621 25.7543Z" fill="#2A2564"/>
<path d="M12.3192 25.7544C12.1694 25.7544 12.0235 25.6768 11.9422 25.5374L9.29611 20.9977C9.21713 20.8622 9.21633 20.6945 9.29415 20.5582C9.3719 20.4219 9.51633 20.3379 9.6727 20.3379H14.9091C15.15 20.3379 15.3454 20.5342 15.3454 20.7762C15.3454 21.0183 15.15 21.2146 14.9091 21.2146H10.4339L12.6954 25.0945C12.8171 25.3033 12.7472 25.5718 12.5393 25.6942C12.47 25.735 12.3941 25.7544 12.3192 25.7544Z" fill="#2A2564"/>
</g>
<defs>
<clipPath id="clip0_38_2510">
<rect width="40" height="26" fill="white" transform="translate(0 5)"/>
</clipPath>
</defs>
</svg>
