<svg width="36" height="36" viewBox="0 0 36 36" fill="none" xmlns="http://www.w3.org/2000/svg">
<path d="M19.1702 31.4561H16.8298C16.311 31.4552 15.8913 31.0347 15.8905 30.5167V29.688C15.8387 29.659 15.7869 29.6292 15.7368 29.5994L15.0179 30.0146C14.5684 30.2727 13.9951 30.1191 13.7353 29.6705L12.5651 27.6435C12.307 27.194 12.4606 26.6207 12.9092 26.3609L13.6291 25.9456C13.6291 25.9158 13.6291 25.8868 13.6291 25.857C13.6291 25.8271 13.6291 25.7982 13.6291 25.7683L12.9092 25.3531C12.4606 25.0932 12.307 24.5191 12.5651 24.0705L13.7353 22.0435C13.9951 21.5949 14.5693 21.4413 15.0179 21.6994L15.7368 22.1146C15.7878 22.0839 15.8387 22.0549 15.8905 22.0259V21.1955C15.8922 20.6784 16.3118 20.2597 16.8298 20.2588H19.1702C19.689 20.2588 20.1086 20.6793 20.1095 21.1981V22.0286C20.1613 22.0575 20.2122 22.0865 20.2631 22.1172L20.9821 21.702C21.4316 21.4439 22.0057 21.5975 22.2656 22.0461L23.4349 24.0731C23.6939 24.5226 23.5402 25.0959 23.0917 25.3557L22.3718 25.7709C22.3718 25.8008 22.3718 25.8298 22.3718 25.8596C22.3718 25.8895 22.3718 25.9184 22.3718 25.9483L23.0917 26.3635C23.5402 26.6234 23.6939 27.1975 23.4349 27.6461L22.2656 29.6713C22.0048 30.1199 21.4316 30.2736 20.9821 30.0155L20.2631 29.5994C20.2131 29.631 20.1613 29.6599 20.1095 29.688V30.5185C20.1069 31.0364 19.6873 31.4552 19.1702 31.4561ZM16.8868 30.4597H19.1131V29.3799C19.1131 29.185 19.2264 29.0077 19.4037 28.9269C19.5977 28.8382 19.7829 28.7311 19.9568 28.6065C20.1157 28.4932 20.3255 28.4836 20.4949 28.5801L21.4307 29.1209L22.5447 27.1949L21.6089 26.655C21.4404 26.5575 21.3438 26.3714 21.3622 26.1774C21.3719 26.0703 21.3772 25.9632 21.3772 25.857C21.3772 25.7508 21.3719 25.6428 21.3622 25.5366C21.3438 25.3425 21.4404 25.1564 21.6089 25.059L22.5447 24.5182L21.4307 22.5922L20.4949 23.1321C20.3264 23.2295 20.1157 23.2199 19.9568 23.1066C19.7829 22.9828 19.5977 22.8757 19.4037 22.7862C19.2264 22.7054 19.1131 22.5281 19.1131 22.3332V21.2517H16.8868V22.3314C16.8868 22.5263 16.7727 22.7028 16.5963 22.7844C16.4023 22.8731 16.217 22.9802 16.0432 23.1049C15.8843 23.2181 15.6745 23.2278 15.5051 23.1303L14.5693 22.5904L13.4552 24.5165L14.3911 25.0572C14.5596 25.1547 14.6562 25.3408 14.6377 25.5348C14.6281 25.641 14.6228 25.749 14.6228 25.8552C14.6228 25.9614 14.6281 26.0677 14.6377 26.1756C14.6553 26.3697 14.5596 26.5558 14.3911 26.6541L13.4552 27.194L14.5693 29.12L15.5042 28.5793C15.6736 28.4818 15.8834 28.4924 16.0423 28.6056C16.2162 28.7294 16.4014 28.8374 16.5954 28.926C16.7727 29.0068 16.886 29.1841 16.886 29.379L16.8868 30.4597Z" fill="#2A2564"/>
<path d="M18 27.9894C16.821 27.9894 15.8658 27.0343 15.8658 25.8553C15.8658 24.6763 16.821 23.7212 18 23.7212C19.1789 23.7212 20.1341 24.6763 20.1341 25.8553C20.1332 27.0334 19.1781 27.9885 18 27.9894ZM18 24.7176C17.3714 24.7176 16.8614 25.2267 16.8614 25.8562C16.8614 26.4847 17.3705 26.9948 18 26.9948C18.6285 26.9948 19.1386 26.4856 19.1386 25.8562V25.8553C19.1368 25.2267 18.6276 24.7185 18 24.7176Z" fill="#2A2564"/>
<path d="M14.4455 22.5817C14.2471 22.5817 14.068 22.4649 13.989 22.2832C13.6853 21.6134 13.3473 20.9594 12.9759 20.3238C12.2306 19.0017 11.5257 17.7534 11.5257 16.0573C11.5257 12.4817 14.4244 9.58301 18 9.58301C21.5756 9.58301 24.4743 12.4817 24.4743 16.0573C24.4743 17.7534 23.7703 19.0017 23.0249 20.3238C22.6536 20.9576 22.3156 21.6107 22.0119 22.2797C21.9021 22.5316 21.6081 22.6466 21.3561 22.5369C21.1042 22.4272 20.9892 22.1331 21.0989 21.8811C21.4158 21.1806 21.7687 20.4976 22.1576 19.8348C22.8661 18.5777 23.4788 17.4918 23.4788 16.0573C23.4788 13.0313 21.026 10.5785 18 10.5785C14.974 10.5785 12.5212 13.0313 12.5212 16.0573C12.5212 17.4918 13.1331 18.5803 13.8424 19.8348C14.2304 20.4976 14.5842 21.1815 14.9002 21.8811C15.0117 22.1322 14.8985 22.4272 14.6465 22.5387C14.5842 22.5676 14.5157 22.5817 14.4455 22.5817Z" fill="#2A2564"/>
<path d="M7.97292 18.3549H2.72676C2.45198 18.3549 2.229 18.1319 2.229 17.8571C2.229 17.5824 2.45198 17.3594 2.72676 17.3594H7.97292C8.2477 17.3594 8.47068 17.5824 8.47068 17.8571C8.47068 18.1319 8.2477 18.3549 7.97292 18.3549Z" fill="#2A2564"/>
<path d="M9.65844 21.4396H2.72676C2.45198 21.4396 2.229 21.2166 2.229 20.9418C2.229 20.6671 2.45198 20.4441 2.72676 20.4441H9.65844C9.93321 20.4441 10.1562 20.6671 10.1562 20.9418C10.1571 21.2166 9.93409 21.4396 9.65844 21.4396Z" fill="#2A2564"/>
<path d="M6.51127 24.5236H2.72676C2.45198 24.5236 2.229 24.3006 2.229 24.0258C2.229 23.7511 2.45198 23.5281 2.72676 23.5281H6.51214C6.78692 23.5281 7.0099 23.7511 7.0099 24.0258C7.0099 24.3006 6.78692 24.5236 6.51127 24.5236Z" fill="#2A2564"/>
<path d="M8.90259 27.6085H2.72676C2.45198 27.6085 2.229 27.3856 2.229 27.1108C2.229 26.836 2.45198 26.613 2.72676 26.613H8.90259C9.17736 26.613 9.40034 26.836 9.40034 27.1108C9.40034 27.3856 9.17736 27.6085 8.90259 27.6085Z" fill="#2A2564"/>
<path d="M7.97292 30.6933H2.72676C2.45198 30.6933 2.229 30.4703 2.229 30.1955C2.229 29.9207 2.45198 29.6978 2.72676 29.6978H7.97292C8.2477 29.6978 8.47068 29.9207 8.47068 30.1955C8.47068 30.4703 8.2477 30.6933 7.97292 30.6933Z" fill="#2A2564"/>
<path d="M33.2732 18.3549H28.0305C27.7558 18.3549 27.5328 18.1319 27.5328 17.8571C27.5328 17.5824 27.7558 17.3594 28.0305 17.3594H33.2732C33.548 17.3594 33.7709 17.5824 33.7709 17.8571C33.7709 18.1319 33.548 18.3549 33.2732 18.3549Z" fill="#2A2564"/>
<path d="M33.2732 21.4396H26.3415C26.0667 21.4396 25.8438 21.2166 25.8438 20.9418C25.8438 20.6671 26.0667 20.4441 26.3415 20.4441H33.2732C33.548 20.4441 33.7709 20.6671 33.7709 20.9418C33.7709 21.2166 33.548 21.4396 33.2732 21.4396Z" fill="#2A2564"/>
<path d="M33.2732 24.5236H29.4878C29.213 24.5236 28.9901 24.3006 28.9901 24.0258C28.9901 23.7511 29.213 23.5281 29.4878 23.5281H33.2732C33.548 23.5281 33.7709 23.7511 33.7709 24.0258C33.7709 24.3006 33.548 24.5236 33.2732 24.5236Z" fill="#2A2564"/>
<path d="M33.2732 27.6085H27.0974C26.8226 27.6085 26.5996 27.3856 26.5996 27.1108C26.5996 26.836 26.8226 26.613 27.0974 26.613H33.2732C33.548 26.613 33.7709 26.836 33.7709 27.1108C33.7709 27.3856 33.548 27.6085 33.2732 27.6085Z" fill="#2A2564"/>
<path d="M33.2732 30.6933H28.0305C27.7558 30.6933 27.5328 30.4703 27.5328 30.1955C27.5328 29.9207 27.7558 29.6978 28.0305 29.6978H33.2732C33.548 29.6978 33.7709 29.9207 33.7709 30.1955C33.7709 30.4703 33.548 30.6933 33.2732 30.6933Z" fill="#2A2564"/>
<path d="M21.6765 11.8472C21.4018 11.8472 21.1788 11.6242 21.1788 11.3486C21.1788 11.2617 21.2016 11.1756 21.2455 11.1001L21.4974 10.6638C21.7353 10.2451 22.1813 9.98699 22.6633 9.99138H24.1697C24.3628 9.99138 24.5191 9.83424 24.5191 9.64111V7.81514C24.5191 7.54036 24.7421 7.31738 25.0168 7.31738C25.2916 7.31738 25.5146 7.54036 25.5146 7.81514V9.64199C25.5137 10.3847 24.9124 10.9869 24.1688 10.9878H22.6624C22.5368 10.9843 22.4192 11.0519 22.3595 11.1625L22.1076 11.5988C22.0198 11.7533 21.8547 11.8481 21.6765 11.8472Z" fill="#2A2564"/>
<path d="M23.9765 16.4348C23.7018 16.4356 23.4788 16.2127 23.4779 15.9388C23.4779 15.8519 23.5007 15.7658 23.5437 15.6903L24.6464 13.759C24.9475 13.2305 25.5699 12.9759 26.1545 13.1419L26.5917 13.2595C26.8577 13.3306 27.0149 13.6036 26.9437 13.8696C26.8726 14.1356 26.5996 14.2928 26.3336 14.2216L25.8956 14.104C25.7481 14.0584 25.5892 14.1198 25.5111 14.2524L24.4076 16.1837C24.3207 16.3391 24.1556 16.4348 23.9765 16.4348ZM29.8091 15.1065C29.688 15.1065 29.5677 15.0899 29.4509 15.0583L29.0129 14.9415C28.7469 14.8704 28.5898 14.5974 28.6609 14.3314C28.732 14.0654 29.005 13.9082 29.271 13.9794L29.7082 14.097C29.8952 14.147 30.0865 14.0355 30.1366 13.8494C30.1445 13.8196 30.148 13.7897 30.1489 13.759V9.05098C30.1489 8.7762 30.3718 8.55322 30.6466 8.55322C30.9214 8.55322 31.1444 8.7762 31.1444 9.05098V13.7555C31.1435 14.4947 30.5474 15.096 29.8082 15.1039V15.1065H29.8091Z" fill="#2A2564"/>
<path d="M25.0177 8.3128C23.9765 8.3128 23.1329 7.47004 23.132 6.42888C23.1311 5.38773 23.9748 4.54409 25.0159 4.54321C26.0571 4.54321 26.9007 5.38597 26.9016 6.42713C26.9016 6.428 26.9016 6.42801 26.9016 6.42888C26.8998 7.46828 26.058 8.31104 25.0177 8.3128ZM25.0177 5.54048C24.527 5.54048 24.1293 5.93727 24.1284 6.428C24.1284 6.91874 24.5252 7.31641 25.0159 7.31729C25.5067 7.31729 25.9043 6.92049 25.9052 6.42976V6.42888C25.9052 5.93815 25.5084 5.54135 25.0177 5.54048Z" fill="#2A2564"/>
<path d="M30.6449 9.54888C29.6037 9.54888 28.7601 8.70612 28.7592 7.66497C28.7583 6.62381 29.602 5.78017 30.6431 5.7793C31.6843 5.7793 32.5279 6.62205 32.5288 7.66321V7.66409C32.5279 8.70437 31.6852 9.548 30.6449 9.54888ZM30.6449 6.77656C30.1542 6.77656 29.7565 7.17336 29.7556 7.66409C29.7556 8.15482 30.1524 8.5525 30.6431 8.55337C31.1339 8.55337 31.5315 8.15658 31.5324 7.66584C31.5324 7.66497 31.5324 7.66497 31.5324 7.66409C31.5315 7.17511 31.1347 6.77832 30.6449 6.77656Z" fill="#2A2564"/>
<path d="M27.8006 15.9827C26.7594 15.9818 25.9167 15.1373 25.9175 14.0962C25.9184 13.055 26.7629 12.2123 27.8041 12.2131C28.8444 12.214 29.6871 13.0576 29.6871 14.0988C29.6862 15.14 28.8417 15.9827 27.8006 15.9827ZM27.8006 13.2104C27.3098 13.2113 26.913 13.6098 26.9139 14.1006C26.9148 14.5913 27.3134 14.9881 27.8041 14.9872C28.2939 14.9863 28.6907 14.5887 28.6907 14.0988C28.6907 13.6072 28.2922 13.2095 27.8006 13.2104Z" fill="#2A2564"/>
<path d="M14.3226 11.8472C14.1444 11.8472 13.9802 11.7524 13.8907 11.5979L13.6387 11.1616C13.5799 11.0501 13.4623 10.9816 13.3358 10.9869H11.8294C11.0867 10.986 10.4845 10.3838 10.4836 9.64111V7.81514C10.4836 7.54036 10.7066 7.31738 10.9814 7.31738C11.2562 7.31738 11.4791 7.54036 11.4791 7.81514V9.64199C11.4791 9.83512 11.6363 9.99138 11.8294 9.99226H13.3358C13.8178 9.98875 14.2638 10.246 14.5017 10.6647L14.7536 11.101C14.8914 11.3389 14.8098 11.6435 14.571 11.7814C14.4964 11.8244 14.4104 11.8472 14.3226 11.8472Z" fill="#2A2564"/>
<path d="M12.0234 16.4348C11.8443 16.4348 11.6793 16.3391 11.5915 16.1837L10.488 14.2524C10.4099 14.1198 10.251 14.0584 10.1035 14.104L9.66456 14.2208C9.39857 14.2919 9.12555 14.1339 9.05444 13.8687C8.98333 13.6027 9.14135 13.3297 9.40647 13.2586L9.84365 13.141C10.4283 12.9751 11.0507 13.2296 11.3518 13.7581L12.4544 15.6894C12.5914 15.9274 12.5089 16.232 12.271 16.368C12.1963 16.4119 12.1103 16.4348 12.0234 16.4348ZM6.18994 15.1065C5.45077 15.0986 4.8547 14.4982 4.85382 13.7581V9.05098C4.85382 8.7762 5.0768 8.55322 5.35157 8.55322C5.62635 8.55322 5.84933 8.7762 5.84933 9.05098V13.7555C5.84933 13.9486 6.00647 14.1058 6.1996 14.1058C6.23032 14.1058 6.26017 14.1014 6.29002 14.0935L6.7272 13.9758C6.9932 13.9047 7.26621 14.0619 7.33732 14.3279C7.40843 14.5939 7.25129 14.8669 6.98529 14.938L6.54724 15.0547C6.43136 15.0863 6.31197 15.103 6.1917 15.103L6.18994 15.1065Z" fill="#2A2564"/>
<path d="M10.9823 8.3128C9.94111 8.3128 9.09747 7.46916 9.09747 6.428C9.09747 5.38685 9.94111 4.54321 10.9823 4.54321C12.0234 4.54321 12.8671 5.38685 12.8671 6.428V6.42888C12.8653 7.46916 12.0225 8.31192 10.9823 8.3128ZM10.9823 5.54048C10.4915 5.54048 10.0939 5.93815 10.0939 6.42888C10.0939 6.91961 10.4915 7.31729 10.9823 7.31729C11.473 7.31729 11.8707 6.91961 11.8707 6.42888C11.8707 5.93815 11.473 5.54048 10.9823 5.54048Z" fill="#2A2564"/>
<path d="M5.35512 9.54888C4.31396 9.54713 3.47208 8.70261 3.47296 7.66146C3.47472 6.6203 4.31923 5.77842 5.36039 5.7793C6.39979 5.78105 7.24255 6.62381 7.24255 7.66409C7.24079 8.70612 6.39628 9.54976 5.35512 9.54888ZM5.35512 6.77656C4.86439 6.77832 4.46759 7.17687 4.46935 7.6676C4.4711 8.15833 4.86966 8.55513 5.36039 8.55337C5.85024 8.55162 6.24704 8.15394 6.24616 7.66409C6.24528 7.17336 5.84585 6.77656 5.35512 6.77656C5.35512 6.77744 5.35512 6.77744 5.35512 6.77656Z" fill="#2A2564"/>
<path d="M8.19943 15.9827C7.15827 15.9827 6.31464 15.1391 6.31464 14.0979C6.31464 13.0568 7.15827 12.2131 8.19943 12.2131C9.24058 12.2131 10.0842 13.0568 10.0842 14.0979V14.0988C10.0833 15.1391 9.23971 15.9818 8.19943 15.9827ZM8.19943 13.2104C7.7087 13.2104 7.31102 13.6081 7.31102 14.0988C7.31102 14.5895 7.7087 14.9872 8.19943 14.9872C8.69016 14.9872 9.08783 14.5895 9.08783 14.0988C9.08696 13.6081 8.68928 13.2104 8.19943 13.2104Z" fill="#2A2564"/>
</svg>
