<svg width="137" height="107" viewBox="0 0 137 107" fill="none" xmlns="http://www.w3.org/2000/svg">
<mask id="mask0_30_10" style="mask-type:luminance" maskUnits="userSpaceOnUse" x="0" y="3" width="137" height="101">
<path d="M137 3.82642H0V103.071H137V3.82642Z" fill="white"/>
</mask>
<g mask="url(#mask0_30_10)">
<path d="M131.292 34.6577L125.583 40.9268L57.0833 15.8666V9.35635C57.0833 8.77767 57.3371 8.23114 57.7683 7.7489L131.292 34.6417V34.6577ZM45.6667 21.8945V28.3887L114.167 53.4489L119.875 47.1799L46.3517 20.2871C45.9204 20.7693 45.6667 21.3158 45.6667 21.8945ZM34.25 34.4167V40.9107L102.75 65.971L108.458 59.7019L34.935 32.8092C34.5037 33.2914 34.25 33.838 34.25 34.4167ZM22.8333 46.9548V53.4489L91.3333 78.509L97.0417 72.2402L23.5183 45.3473C23.0871 45.8296 22.8333 46.3761 22.8333 46.9548ZM11.4167 59.4769V65.971L79.9167 91.0311L85.625 84.7623L12.1017 57.8695C11.6704 58.3517 11.4167 58.8982 11.4167 59.4769ZM0 72.0151V76.6607C0 77.8021 0.964074 78.8791 2.53704 79.4417L65.9629 102.637C66.9017 102.974 67.9418 103.087 68.9821 103.023L74.2083 97.3007L0.685 70.4076C0.253704 70.8899 0 71.4363 0 72.0151Z" fill="url(#paint0_linear_30_10)"/>
<path d="M136.518 28.9189L131.292 34.6414L57.7691 7.74862C58.2003 7.26638 58.8345 6.86451 59.621 6.57517L65.9636 4.26043C67.5366 3.68174 69.4648 3.68174 71.0377 4.26043L134.463 27.4561C135.402 27.7936 136.087 28.3241 136.518 28.9189ZM57.0841 15.8663L48.2044 19.1133C47.4178 19.4027 46.7837 19.8045 46.3523 20.2868L119.876 47.1795L125.584 40.9105L57.0841 15.8663ZM45.6674 28.3884L36.7877 31.6354C36.0012 31.9248 35.367 32.3267 34.9356 32.8089L108.459 59.7017L114.167 53.4326L45.6674 28.3723V28.3884ZM34.2506 40.9105L25.371 44.1576C24.5845 44.4469 23.9503 44.8488 23.5191 45.331L97.0424 72.2239L102.751 65.9547L34.2506 40.8944V40.9105ZM22.834 53.4487L13.9544 56.6957C13.1678 56.9851 12.5337 57.387 12.1023 57.8692L85.6257 84.7622L91.334 78.4927L22.834 53.4326V53.4487ZM11.4173 65.9708L2.53771 69.2178C1.75122 69.5071 1.11697 69.909 0.685669 70.3913L74.2091 97.2844L79.9174 91.0148L11.4173 65.9547V65.9708Z" fill="url(#paint1_linear_30_10)"/>
<path d="M125.583 34.4164V40.9106L116.704 44.1576C115.13 44.7363 114.167 45.7972 114.167 46.9385V53.4327L105.287 56.6798C103.714 57.2584 102.75 58.3193 102.75 59.4606V65.9547L93.8704 69.2018C92.2974 69.7805 91.3333 70.8414 91.3333 71.9826V78.4771L82.4537 81.7237C80.8807 82.3026 79.9167 83.3633 79.9167 84.5047V90.9992L71.0371 94.2458C69.464 94.8247 68.5 95.8854 68.5 97.0268V103.023C69.3879 103.023 70.2506 102.878 71.0371 102.589L134.463 79.3928C136.036 78.8147 137 77.7532 137 76.6125V30.2049C137 29.6262 136.746 29.0797 136.315 28.5974L128.121 31.6034C126.547 32.1821 125.583 33.243 125.583 34.3843V34.4164Z" fill="#2A2564"/>
</g>
<defs>
<linearGradient id="paint0_linear_30_10" x1="23.8827" y1="81.6422" x2="37.5516" y2="15.1055" gradientUnits="userSpaceOnUse">
<stop stop-color="#6492EE"/>
<stop offset="0.192308" stop-color="#637CEB"/>
<stop offset="0.36" stop-color="#6276E5"/>
<stop offset="0.55" stop-color="#5A5EDA"/>
<stop offset="0.74" stop-color="#3D52CA"/>
<stop offset="0.93" stop-color="#1820B7"/>
<stop offset="1" stop-color="#091CAF"/>
</linearGradient>
<linearGradient id="paint1_linear_30_10" x1="102.573" y1="86.9318" x2="71.5755" y2="2.2049" gradientUnits="userSpaceOnUse">
<stop stop-color="#B4C4F9"/>
<stop offset="1" stop-color="#6479EE"/>
</linearGradient>
</defs>
</svg>
