<svg width="149" height="127" viewBox="0 0 149 127" fill="none" xmlns="http://www.w3.org/2000/svg">
<path d="M26.624 21.4356C11.5376 30.1313 4.93982 41.8684 6.82909 53.2239L27.9728 52.0483C26.6679 44.2065 31.2256 36.1 41.6444 30.0948C60.1637 19.4192 90.1885 19.4192 108.708 30.0948L123.728 21.437C96.9137 5.97858 53.4385 5.9786 26.624 21.4356Z" fill="#8295F1"/>
<path d="M6.82898 53.2227V81.7591L27.9727 80.5835V52.0471L6.82898 53.2227Z" fill="url(#paint0_linear_28_1416)"/>
<path d="M123.728 21.4359V49.9709L108.708 58.6301V30.0936L123.728 21.4359Z" fill="url(#paint1_linear_28_1416)"/>
<path d="M108.708 30.0936C90.1885 19.418 60.1637 19.418 41.6445 30.0936C31.2256 36.0989 26.6679 44.2054 27.9728 52.0472V75.4381C28.9526 69.3041 33.4971 63.3237 41.6445 58.6285C60.1637 47.953 90.1885 47.953 108.708 58.6285V43.4216V30.0936Z" fill="url(#paint2_linear_28_1416)"/>
<path d="M119.824 68.7394C125.802 59.0991 122.101 47.9117 108.708 40.1913V58.6297C113.834 61.5834 117.534 65.0488 119.824 68.7394Z" fill="url(#paint3_linear_28_1416)"/>
<path d="M75.1754 23.9961V77.9574L57.3401 99.6331V45.6718L75.1754 23.9961Z" fill="url(#paint4_linear_28_1416)"/>
<path d="M116.804 77.9574L116.753 25.1498C116.498 28.2248 115.21 31.3217 112.779 34.2754V88.2367C115.512 84.916 116.799 81.4155 116.799 77.9691L116.804 77.9574Z" fill="url(#paint5_linear_28_1416)"/>
<path d="M75.1753 23.9961L112.779 34.2769V88.2396L75.1753 77.9574V23.9961Z" fill="url(#paint6_linear_28_1416)"/>
<path d="M57.3401 69.7454V99.633C78.1074 105.311 102.929 100.211 112.779 88.238V58.3505C102.929 70.323 78.1074 75.4246 57.3401 69.7454Z" fill="url(#paint7_linear_28_1416)"/>
<path d="M33.5953 22.8805L33.5485 22.8352V77.9575L33.5528 77.9618C33.566 86.9325 42.3431 95.5332 57.3401 99.6332V45.6705C41.7207 41.4008 32.8455 32.2489 33.5953 22.8805Z" fill="url(#paint8_linear_28_1416)"/>
<path d="M6.82898 63.3746C8.29793 72.2019 14.8957 80.7997 26.6239 87.5609L41.6443 78.9032C33.5439 74.2344 28.9877 68.2964 27.9727 62.199L6.82898 63.3746Z" fill="#8295F1"/>
<path d="M75.1754 23.9961L112.778 34.2768C122.628 22.3058 113.778 7.99806 93.0108 2.32031C72.2434 -3.35744 47.4222 1.74275 37.5716 13.7138C27.721 25.6849 36.5713 39.9926 57.3387 45.6703L75.1754 23.9961Z" fill="#8295F1"/>
<path d="M57.3401 69.7454C78.1074 75.4232 102.929 70.323 112.779 58.3505L75.1769 48.0697L57.3401 69.7454Z" fill="#8295F1"/>
<path d="M26.6239 87.5612V105.945L41.6443 97.2863V78.9034L26.6239 87.5612Z" fill="url(#paint9_linear_28_1416)"/>
<path d="M6.82898 63.3745V81.7588C8.29793 90.5876 14.8957 99.1854 26.6239 105.945V87.5609C14.8957 80.7996 8.29793 72.2019 6.82898 63.3745Z" fill="url(#paint10_linear_28_1416)"/>
<path d="M108.708 78.8492V97.2877L123.728 105.945V87.507L108.708 78.8492Z" fill="url(#paint11_linear_28_1416)"/>
<path d="M120.648 85.7318L123.728 87.5069L120.648 85.7318Z" fill="#007BC3"/>
<path d="M123.728 87.5068V105.945C137.135 98.2174 143.84 88.0873 143.84 77.9586V59.5201C143.838 69.6488 137.135 79.779 123.728 87.5068Z" fill="url(#paint12_linear_28_1416)"/>
<path d="M123.728 31.5322L116.763 35.5474L116.773 46.3955C124.513 54.54 124.522 64.4684 116.799 72.6173C116.795 72.6217 116.791 72.6246 116.788 72.629C116.272 73.1715 115.723 73.7066 115.138 74.233C115.119 74.2506 115.102 74.2667 115.083 74.2842C114.496 74.8106 113.878 75.3282 113.221 75.8341C113.177 75.8678 113.129 75.9014 113.085 75.935C112.521 76.3678 111.928 76.7904 111.313 77.2072C111.153 77.3154 110.994 77.4236 110.831 77.5303C110.149 77.9777 109.449 78.4193 108.708 78.8463L123.728 87.504C150.543 72.0499 150.543 46.9892 123.728 31.5322Z" fill="#8295F1"/>
<path d="M41.6443 85.214L26.6239 93.8717C53.4384 109.329 96.9122 109.329 123.728 93.8717L108.708 85.214C90.1884 95.8896 60.1636 95.8896 41.6443 85.214Z" fill="#8295F1"/>
<path d="M26.6239 93.8721V105.945C53.4384 121.402 96.9122 121.402 123.728 105.945V93.8721C96.9136 109.329 53.4384 109.329 26.6239 93.8721Z" fill="url(#paint13_linear_28_1416)"/>
<defs>
<linearGradient id="paint0_linear_28_1416" x1="10.6751" y1="75.0872" x2="18.1005" y2="56.4188" gradientUnits="userSpaceOnUse">
<stop stop-color="#6492EE"/>
<stop offset="0.192308" stop-color="#637CEB"/>
<stop offset="0.36" stop-color="#6276E5"/>
<stop offset="0.55" stop-color="#5A5EDA"/>
<stop offset="0.74" stop-color="#3D52CA"/>
<stop offset="0.93" stop-color="#1820B7"/>
<stop offset="1" stop-color="#091CAF"/>
</linearGradient>
<linearGradient id="paint1_linear_28_1416" x1="111.44" y1="50.278" x2="124.161" y2="32.1276" gradientUnits="userSpaceOnUse">
<stop stop-color="#6492EE"/>
<stop offset="0.192308" stop-color="#637CEB"/>
<stop offset="0.36" stop-color="#6276E5"/>
<stop offset="0.55" stop-color="#5A5EDA"/>
<stop offset="0.74" stop-color="#3D52CA"/>
<stop offset="0.93" stop-color="#1820B7"/>
<stop offset="1" stop-color="#091CAF"/>
</linearGradient>
<linearGradient id="paint2_linear_28_1416" x1="42.4807" y1="63.4579" x2="49.4795" y2="25.9391" gradientUnits="userSpaceOnUse">
<stop stop-color="#6492EE"/>
<stop offset="0.192308" stop-color="#637CEB"/>
<stop offset="0.36" stop-color="#6276E5"/>
<stop offset="0.55" stop-color="#5A5EDA"/>
<stop offset="0.74" stop-color="#3D52CA"/>
<stop offset="0.93" stop-color="#1820B7"/>
<stop offset="1" stop-color="#091CAF"/>
</linearGradient>
<linearGradient id="paint3_linear_28_1416" x1="111.233" y1="62.3288" x2="120.265" y2="46.8099" gradientUnits="userSpaceOnUse">
<stop stop-color="#6492EE"/>
<stop offset="0.192308" stop-color="#637CEB"/>
<stop offset="0.36" stop-color="#6276E5"/>
<stop offset="0.55" stop-color="#5A5EDA"/>
<stop offset="0.74" stop-color="#3D52CA"/>
<stop offset="0.93" stop-color="#1820B7"/>
<stop offset="1" stop-color="#091CAF"/>
</linearGradient>
<linearGradient id="paint4_linear_28_1416" x1="60.5844" y1="82.6486" x2="87.6528" y2="60.0984" gradientUnits="userSpaceOnUse">
<stop stop-color="#6492EE"/>
<stop offset="0.192308" stop-color="#637CEB"/>
<stop offset="0.36" stop-color="#6276E5"/>
<stop offset="0.55" stop-color="#5A5EDA"/>
<stop offset="0.74" stop-color="#3D52CA"/>
<stop offset="0.93" stop-color="#1820B7"/>
<stop offset="1" stop-color="#091CAF"/>
</linearGradient>
<linearGradient id="paint5_linear_28_1416" x1="113.511" y1="74.0703" x2="123.358" y2="71.851" gradientUnits="userSpaceOnUse">
<stop stop-color="#6492EE"/>
<stop offset="0.192308" stop-color="#637CEB"/>
<stop offset="0.36" stop-color="#6276E5"/>
<stop offset="0.55" stop-color="#5A5EDA"/>
<stop offset="0.74" stop-color="#3D52CA"/>
<stop offset="0.93" stop-color="#1820B7"/>
<stop offset="1" stop-color="#091CAF"/>
</linearGradient>
<linearGradient id="paint6_linear_28_1416" x1="82.0156" y1="73.8135" x2="100.338" y2="35.9228" gradientUnits="userSpaceOnUse">
<stop stop-color="#6492EE"/>
<stop offset="0.192308" stop-color="#637CEB"/>
<stop offset="0.36" stop-color="#6276E5"/>
<stop offset="0.55" stop-color="#5A5EDA"/>
<stop offset="0.74" stop-color="#3D52CA"/>
<stop offset="0.93" stop-color="#1820B7"/>
<stop offset="1" stop-color="#091CAF"/>
</linearGradient>
<linearGradient id="paint7_linear_28_1416" x1="67.4247" y1="92.1621" x2="74.1549" y2="61.93" gradientUnits="userSpaceOnUse">
<stop stop-color="#6492EE"/>
<stop offset="0.192308" stop-color="#637CEB"/>
<stop offset="0.36" stop-color="#6276E5"/>
<stop offset="0.55" stop-color="#5A5EDA"/>
<stop offset="0.74" stop-color="#3D52CA"/>
<stop offset="0.93" stop-color="#1820B7"/>
<stop offset="1" stop-color="#091CAF"/>
</linearGradient>
<linearGradient id="paint8_linear_28_1416" x1="37.8763" y1="82.388" x2="65.7062" y2="51.9281" gradientUnits="userSpaceOnUse">
<stop stop-color="#6492EE"/>
<stop offset="0.192308" stop-color="#637CEB"/>
<stop offset="0.36" stop-color="#6276E5"/>
<stop offset="0.55" stop-color="#5A5EDA"/>
<stop offset="0.74" stop-color="#3D52CA"/>
<stop offset="0.93" stop-color="#1820B7"/>
<stop offset="1" stop-color="#091CAF"/>
</linearGradient>
<linearGradient id="paint9_linear_28_1416" x1="29.3562" y1="99.8731" x2="37.317" y2="84.2509" gradientUnits="userSpaceOnUse">
<stop stop-color="#6492EE"/>
<stop offset="0.192308" stop-color="#637CEB"/>
<stop offset="0.36" stop-color="#6276E5"/>
<stop offset="0.55" stop-color="#5A5EDA"/>
<stop offset="0.74" stop-color="#3D52CA"/>
<stop offset="0.93" stop-color="#1820B7"/>
<stop offset="1" stop-color="#091CAF"/>
</linearGradient>
<linearGradient id="paint10_linear_28_1416" x1="10.4298" y1="96.3858" x2="24.1891" y2="73.7821" gradientUnits="userSpaceOnUse">
<stop stop-color="#6492EE"/>
<stop offset="0.192308" stop-color="#637CEB"/>
<stop offset="0.36" stop-color="#6276E5"/>
<stop offset="0.55" stop-color="#5A5EDA"/>
<stop offset="0.74" stop-color="#3D52CA"/>
<stop offset="0.93" stop-color="#1820B7"/>
<stop offset="1" stop-color="#091CAF"/>
</linearGradient>
<linearGradient id="paint11_linear_28_1416" x1="111.44" y1="99.8608" x2="119.426" y2="84.2203" gradientUnits="userSpaceOnUse">
<stop stop-color="#6492EE"/>
<stop offset="0.192308" stop-color="#637CEB"/>
<stop offset="0.36" stop-color="#6276E5"/>
<stop offset="0.55" stop-color="#5A5EDA"/>
<stop offset="0.74" stop-color="#3D52CA"/>
<stop offset="0.93" stop-color="#1820B7"/>
<stop offset="1" stop-color="#091CAF"/>
</linearGradient>
<linearGradient id="paint12_linear_28_1416" x1="127.387" y1="95.5203" x2="142.856" y2="71.844" gradientUnits="userSpaceOnUse">
<stop stop-color="#6492EE"/>
<stop offset="0.192308" stop-color="#637CEB"/>
<stop offset="0.36" stop-color="#6276E5"/>
<stop offset="0.55" stop-color="#5A5EDA"/>
<stop offset="0.74" stop-color="#3D52CA"/>
<stop offset="0.93" stop-color="#1820B7"/>
<stop offset="1" stop-color="#091CAF"/>
</linearGradient>
<linearGradient id="paint13_linear_28_1416" x1="44.2876" y1="112.224" x2="45.4701" y2="95.0833" gradientUnits="userSpaceOnUse">
<stop stop-color="#6492EE"/>
<stop offset="0.192308" stop-color="#637CEB"/>
<stop offset="0.36" stop-color="#6276E5"/>
<stop offset="0.55" stop-color="#5A5EDA"/>
<stop offset="0.74" stop-color="#3D52CA"/>
<stop offset="0.93" stop-color="#1820B7"/>
<stop offset="1" stop-color="#091CAF"/>
</linearGradient>
</defs>
</svg>
