<svg width="158" height="122" viewBox="0 0 158 122" fill="none" xmlns="http://www.w3.org/2000/svg">
<path d="M86.8157 60.4684L95.8801 60.3318L107.837 38.831L103.19 31.0258L86.8157 60.4684Z" fill="url(#paint0_linear_28_1385)"/>
<path d="M70.4098 60.7167L104.47 117.912L136.829 59.7188L102.769 2.52312L70.4098 60.7167ZM104.05 89.4099L86.8172 60.4702L103.189 31.0256L120.422 59.9653L104.05 89.4099Z" fill="url(#paint1_linear_28_1385)"/>
<path d="M104.47 117.917L113.535 117.781L145.893 59.5866L136.828 59.7228L104.47 117.917Z" fill="url(#paint2_linear_28_1385)"/>
<path d="M102.764 2.52373L111.829 2.38754L145.888 59.5824L136.823 59.7186L102.764 2.52373Z" fill="url(#paint3_linear_28_1385)"/>
<path d="M86.8197 60.4714L104.052 89.4089L108.468 81.4671L95.8841 60.3348L86.8197 60.4714Z" fill="url(#paint4_linear_28_1385)"/>
<path d="M64.1246 55.1967L72.117 55.0762L82.6592 36.1183L78.5609 29.236L64.1246 55.1967Z" fill="url(#paint5_linear_28_1385)"/>
<path d="M49.6586 55.4155L79.69 105.846L108.221 54.5357L78.1901 4.10508L49.6586 55.4155ZM79.3195 80.7143L64.1245 55.1982L78.5606 29.2369L93.7556 54.753L79.3195 80.7143Z" fill="url(#paint6_linear_28_1385)"/>
<path d="M79.69 105.849L87.682 105.729L116.213 54.4192L108.221 54.5392L79.69 105.849Z" fill="url(#paint7_linear_28_1385)"/>
<path d="M78.1855 4.10582L86.1774 3.98574L116.208 54.4156L108.216 54.5357L78.1855 4.10582Z" fill="url(#paint8_linear_28_1385)"/>
<path d="M64.1281 55.1993L79.321 80.7135L83.2152 73.7108L72.1206 55.0789L64.1281 55.1993Z" fill="url(#paint9_linear_28_1385)"/>
<path d="M40.768 62.7664L48.7591 62.6459L59.3026 43.688L55.2044 36.807L40.768 62.7664Z" fill="url(#paint10_linear_28_1385)"/>
<path d="M26.3019 62.9851L56.3333 113.416L84.8648 62.1052L54.8334 11.6747L26.3019 62.9851ZM55.9628 88.2839L40.7678 62.7677L55.2039 36.8064L70.3989 62.3226L55.9628 88.2839Z" fill="url(#paint11_linear_28_1385)"/>
<path d="M56.3334 113.418L64.3254 113.298L92.8559 61.9887L84.8639 62.1088L56.3334 113.418Z" fill="url(#paint12_linear_28_1385)"/>
<path d="M54.8289 11.6769L62.8209 11.5568L92.8512 61.9853L84.8592 62.1054L54.8289 11.6769Z" fill="url(#paint13_linear_28_1385)"/>
<path d="M40.7716 62.769L55.9645 88.2832L59.8587 81.2818L48.7627 62.6486L40.7716 62.769Z" fill="url(#paint14_linear_28_1385)"/>
<path d="M23.3801 57.8103L29.637 57.716L37.892 42.8736L34.6829 37.4854L23.3801 57.8103Z" fill="url(#paint15_linear_28_1385)"/>
<path d="M12.0548 57.9816L35.5667 97.4644L57.9045 57.2928L34.3925 17.81L12.0548 57.9816ZM35.2767 77.7883L23.3809 57.8114L34.6825 37.4861L46.5783 57.4629L35.2767 77.7883Z" fill="url(#paint16_linear_28_1385)"/>
<path d="M35.5667 97.4667L41.8246 97.3727L64.1616 57.2016L57.9037 57.2956L35.5667 97.4667Z" fill="url(#paint17_linear_28_1385)"/>
<path d="M34.3888 17.8106L40.6467 17.7166L64.1579 57.1988L57.9 57.2928L34.3888 17.8106Z" fill="url(#paint18_linear_28_1385)"/>
<path d="M23.3828 57.8124L35.278 77.7877L38.3273 72.3066L29.6398 57.7181L23.3828 57.8124Z" fill="url(#paint19_linear_28_1385)"/>
<defs>
<linearGradient id="paint0_linear_28_1385" x1="97.4835" y1="60.308" x2="97.0436" y2="31.118" gradientUnits="userSpaceOnUse">
<stop stop-color="#007BC3"/>
<stop offset="1" stop-color="#FEFEFD"/>
</linearGradient>
<linearGradient id="paint1_linear_28_1385" x1="122.456" y1="96.6477" x2="75.26" y2="89.6711" gradientUnits="userSpaceOnUse">
<stop stop-color="#6492EE"/>
<stop offset="0.192308" stop-color="#637CEB"/>
<stop offset="0.36" stop-color="#6276E5"/>
<stop offset="0.55" stop-color="#5A5EDA"/>
<stop offset="0.74" stop-color="#3D52CA"/>
<stop offset="0.93" stop-color="#1820B7"/>
<stop offset="1" stop-color="#091CAF"/>
</linearGradient>
<linearGradient id="paint2_linear_28_1385" x1="125.607" y1="117.599" x2="124.74" y2="59.9048" gradientUnits="userSpaceOnUse">
<stop stop-color="#201693"/>
<stop offset="1" stop-color="#2A2564"/>
</linearGradient>
<linearGradient id="paint3_linear_28_1385" x1="136.241" y1="49.2302" x2="106.657" y2="43.5486" gradientUnits="userSpaceOnUse">
<stop stop-color="#6492EE"/>
<stop offset="0.192308" stop-color="#637CEB"/>
<stop offset="0.36" stop-color="#6276E5"/>
<stop offset="0.55" stop-color="#5A5EDA"/>
<stop offset="0.74" stop-color="#3D52CA"/>
<stop offset="0.93" stop-color="#1820B7"/>
<stop offset="1" stop-color="#091CAF"/>
</linearGradient>
<linearGradient id="paint4_linear_28_1385" x1="103.715" y1="84.1029" x2="88.782" y2="81.2421" gradientUnits="userSpaceOnUse">
<stop stop-color="#6492EE"/>
<stop offset="0.192308" stop-color="#637CEB"/>
<stop offset="0.36" stop-color="#6276E5"/>
<stop offset="0.55" stop-color="#5A5EDA"/>
<stop offset="0.74" stop-color="#3D52CA"/>
<stop offset="0.93" stop-color="#1820B7"/>
<stop offset="1" stop-color="#091CAF"/>
</linearGradient>
<linearGradient id="paint5_linear_28_1385" x1="73.53" y1="55.0549" x2="73.1422" y2="29.3179" gradientUnits="userSpaceOnUse">
<stop stop-color="#007BC3"/>
<stop offset="1" stop-color="#FEFEFD"/>
</linearGradient>
<linearGradient id="paint6_linear_28_1385" x1="95.5481" y1="87.0966" x2="53.935" y2="80.9453" gradientUnits="userSpaceOnUse">
<stop stop-color="#6492EE"/>
<stop offset="0.192308" stop-color="#637CEB"/>
<stop offset="0.36" stop-color="#6276E5"/>
<stop offset="0.55" stop-color="#5A5EDA"/>
<stop offset="0.74" stop-color="#3D52CA"/>
<stop offset="0.93" stop-color="#1820B7"/>
<stop offset="1" stop-color="#091CAF"/>
</linearGradient>
<linearGradient id="paint7_linear_28_1385" x1="98.3266" y1="105.568" x2="97.5623" y2="54.6994" gradientUnits="userSpaceOnUse">
<stop stop-color="#007BC3"/>
<stop offset="1" stop-color="#260D5D"/>
</linearGradient>
<linearGradient id="paint8_linear_28_1385" x1="107.702" y1="45.2879" x2="81.6184" y2="40.2786" gradientUnits="userSpaceOnUse">
<stop stop-color="#6492EE"/>
<stop offset="0.192308" stop-color="#637CEB"/>
<stop offset="0.36" stop-color="#6276E5"/>
<stop offset="0.55" stop-color="#5A5EDA"/>
<stop offset="0.74" stop-color="#3D52CA"/>
<stop offset="0.93" stop-color="#1820B7"/>
<stop offset="1" stop-color="#091CAF"/>
</linearGradient>
<linearGradient id="paint9_linear_28_1385" x1="79.0244" y1="76.0352" x2="65.8582" y2="73.5128" gradientUnits="userSpaceOnUse">
<stop stop-color="#6492EE"/>
<stop offset="0.192308" stop-color="#637CEB"/>
<stop offset="0.36" stop-color="#6276E5"/>
<stop offset="0.55" stop-color="#5A5EDA"/>
<stop offset="0.74" stop-color="#3D52CA"/>
<stop offset="0.93" stop-color="#1820B7"/>
<stop offset="1" stop-color="#091CAF"/>
</linearGradient>
<linearGradient id="paint10_linear_28_1385" x1="50.1733" y1="62.6252" x2="49.7855" y2="36.8881" gradientUnits="userSpaceOnUse">
<stop stop-color="#007BC3"/>
<stop offset="1" stop-color="#FEFEFD"/>
</linearGradient>
<linearGradient id="paint11_linear_28_1385" x1="72.1914" y1="94.6661" x2="30.5783" y2="88.5149" gradientUnits="userSpaceOnUse">
<stop stop-color="#6492EE"/>
<stop offset="0.192308" stop-color="#637CEB"/>
<stop offset="0.36" stop-color="#6276E5"/>
<stop offset="0.55" stop-color="#5A5EDA"/>
<stop offset="0.74" stop-color="#3D52CA"/>
<stop offset="0.93" stop-color="#1820B7"/>
<stop offset="1" stop-color="#091CAF"/>
</linearGradient>
<linearGradient id="paint12_linear_28_1385" x1="74.9698" y1="113.139" x2="74.2055" y2="62.2694" gradientUnits="userSpaceOnUse">
<stop stop-color="#007BC3"/>
<stop offset="1" stop-color="#462C93"/>
</linearGradient>
<linearGradient id="paint13_linear_28_1385" x1="84.3451" y1="52.8578" x2="58.2619" y2="47.8484" gradientUnits="userSpaceOnUse">
<stop stop-color="#6492EE"/>
<stop offset="0.192308" stop-color="#637CEB"/>
<stop offset="0.36" stop-color="#6276E5"/>
<stop offset="0.55" stop-color="#5A5EDA"/>
<stop offset="0.74" stop-color="#3D52CA"/>
<stop offset="0.93" stop-color="#1820B7"/>
<stop offset="1" stop-color="#091CAF"/>
</linearGradient>
<linearGradient id="paint14_linear_28_1385" x1="55.6679" y1="83.6049" x2="42.5017" y2="81.0825" gradientUnits="userSpaceOnUse">
<stop stop-color="#6492EE"/>
<stop offset="0.192308" stop-color="#637CEB"/>
<stop offset="0.36" stop-color="#6276E5"/>
<stop offset="0.55" stop-color="#5A5EDA"/>
<stop offset="0.74" stop-color="#3D52CA"/>
<stop offset="0.93" stop-color="#1820B7"/>
<stop offset="1" stop-color="#091CAF"/>
</linearGradient>
<linearGradient id="paint15_linear_28_1385" x1="30.7442" y1="57.6997" x2="30.4405" y2="37.5498" gradientUnits="userSpaceOnUse">
<stop stop-color="#252A64"/>
<stop offset="1" stop-color="#FEFEFD"/>
</linearGradient>
<linearGradient id="paint16_linear_28_1385" x1="47.9823" y1="82.7852" x2="15.4028" y2="77.9692" gradientUnits="userSpaceOnUse">
<stop stop-color="#6492EE"/>
<stop offset="0.192308" stop-color="#637CEB"/>
<stop offset="0.36" stop-color="#6276E5"/>
<stop offset="0.55" stop-color="#5A5EDA"/>
<stop offset="0.74" stop-color="#3D52CA"/>
<stop offset="0.93" stop-color="#1820B7"/>
<stop offset="1" stop-color="#091CAF"/>
</linearGradient>
<linearGradient id="paint17_linear_28_1385" x1="50.1579" y1="97.2477" x2="49.5595" y2="57.4214" gradientUnits="userSpaceOnUse">
<stop stop-color="#007BC3"/>
<stop offset="1" stop-color="#3D166A"/>
</linearGradient>
<linearGradient id="paint18_linear_28_1385" x1="57.4982" y1="50.0526" x2="37.0766" y2="46.1305" gradientUnits="userSpaceOnUse">
<stop stop-color="#6492EE"/>
<stop offset="0.192308" stop-color="#637CEB"/>
<stop offset="0.36" stop-color="#6276E5"/>
<stop offset="0.55" stop-color="#5A5EDA"/>
<stop offset="0.74" stop-color="#3D52CA"/>
<stop offset="0.93" stop-color="#1820B7"/>
<stop offset="1" stop-color="#091CAF"/>
</linearGradient>
<linearGradient id="paint19_linear_28_1385" x1="31.0431" y1="77.852" x2="30.7395" y2="57.702" gradientUnits="userSpaceOnUse">
<stop stop-color="#2A2564"/>
<stop offset="1" stop-color="#DFECF2"/>
</linearGradient>
</defs>
</svg>
