<svg width="118" height="117" viewBox="0 0 118 117" fill="none" xmlns="http://www.w3.org/2000/svg">
<path d="M6.55396 81.6943L13.1095 78.7618V43.7339L6.55396 40.8177V81.6943Z" fill="#2A2564"/>
<path d="M117.41 32.3054L59 58.3316V110.367C59.7648 110.367 60.5078 110.216 61.1852 109.912L115.815 85.5716C117.169 84.9644 118 83.852 118 82.6553V33.9742C118 33.3842 117.782 32.811 117.41 32.3054ZM111.445 81.6943L65.5555 102.124V61.2479L111.445 40.8179V81.6943Z" fill="#2A2564"/>
<path d="M58.9967 11.6053L13.1079 32.0522L19.6635 34.9683L58.9967 17.4545V11.6053Z" fill="#2A2564"/>
<path d="M0 33.9911V82.6553C0 83.8527 0.83037 84.9651 2.18518 85.5716L56.8148 109.912C57.4922 110.216 58.2352 110.367 59 110.367V58.3318L0.59 32.3055C0.218518 32.8112 0 33.4012 0 33.9911ZM6.55555 40.818L52.4445 61.2479V102.124L6.55555 81.695V40.818ZM111.445 40.818V81.695L104.889 78.7787V43.751L111.445 40.8349V40.818ZM104.889 32.0527L98.3336 34.9689L59 17.455V11.6227L104.889 32.0527Z" fill="url(#paint0_linear_28_1244)"/>
<path d="M13.1116 78.7624L52.445 96.2756V102.108L6.55614 81.695L13.1116 78.7787V78.7624ZM65.5561 96.2926V102.125L111.445 81.695L104.889 78.7787L65.5561 96.2926ZM117.411 32.306L59.0006 58.3154L0.590576 32.306C0.96206 31.8003 1.50835 31.3789 2.18577 31.0755L56.8154 6.7517C58.1702 6.14486 59.831 6.14486 61.1858 6.7517L115.815 31.0755C116.493 31.3789 117.039 31.8003 117.411 32.306ZM104.889 32.0531L59.0006 11.6063L13.1116 32.0531L59.0006 52.4831L104.889 32.0531Z" fill="url(#paint1_linear_28_1244)"/>
<defs>
<linearGradient id="paint0_linear_28_1244" x1="26.5063" y1="96.4101" x2="63.3983" y2="13.5699" gradientUnits="userSpaceOnUse">
<stop stop-color="#B1BFF9"/>
<stop offset="0.18" stop-color="#AEB6F8"/>
<stop offset="0.36" stop-color="#AEADF8"/>
<stop offset="0.55" stop-color="#5A80DA"/>
<stop offset="0.74" stop-color="#3D52CA"/>
<stop offset="0.93" stop-color="#1830B7"/>
<stop offset="1" stop-color="#0930AF"/>
</linearGradient>
<linearGradient id="paint1_linear_28_1244" x1="88.2165" y1="92.0283" x2="51.3231" y2="9.20329" gradientUnits="userSpaceOnUse">
<stop stop-color="#007BC3"/>
<stop offset="1" stop-color="#6489EE"/>
</linearGradient>
</defs>
</svg>
