<svg width="156" height="120" viewBox="0 0 156 120" fill="none" xmlns="http://www.w3.org/2000/svg">
<mask id="mask0_28_1284" style="mask-type:luminance" maskUnits="userSpaceOnUse" x="13" y="3" width="130" height="113">
<path d="M142.524 3.75H13.8848V115.75H142.524V3.75Z" fill="white"/>
</mask>
<g mask="url(#mask0_28_1284)">
<path d="M141.88 82.0271C142.285 82.5712 142.524 83.188 142.524 83.8409V85.9271C142.524 87.2151 141.619 88.412 140.142 89.0656L80.5868 115.242C79.8484 115.569 79.0385 115.732 78.2046 115.732V110.017L141.88 82.0271ZM28.1785 81.7363L35.3251 84.8748L49.6183 78.5982L42.4717 75.4598L28.1785 81.7363ZM78.2046 84.8932V90.6069C79.0385 90.6069 79.8484 90.4439 80.5868 90.1171L140.142 63.9406C141.619 63.2876 142.524 62.0902 142.524 60.8023V58.7161C142.524 58.0631 142.285 57.4463 141.88 56.9021L78.2046 84.8932ZM28.1785 56.6118L35.3251 59.7501L49.6183 53.4735L42.4717 50.3351L28.1785 56.6118ZM141.88 31.741L78.2046 59.7319V65.4463C79.0385 65.4463 79.8484 65.283 80.5868 64.9565L106.791 53.4372L121.084 47.1606L131.804 42.444L140.142 38.7796C141.619 38.1265 142.524 36.9293 142.524 35.6413V33.5551C142.524 32.9021 142.285 32.2852 141.88 31.741ZM78.2046 15.7592V9.48254L28.1785 31.469L35.3251 34.6073L78.2046 15.7592Z" fill="#2A2564"/>
<path d="M14.528 82.0263L78.2042 110.017V115.732C77.3705 115.732 76.5604 115.569 75.822 115.242L16.267 89.0656C14.7901 88.412 13.8848 87.215 13.8848 85.927V83.8408C13.8848 83.188 14.123 82.5712 14.528 82.0263ZM106.791 78.5981L121.084 84.8747L128.231 81.7362L113.937 75.4597L106.791 78.5981ZM13.8848 58.6978V60.7841C13.8848 62.072 14.7901 63.2693 16.267 63.9223L75.822 90.0995C76.5604 90.4255 77.3705 90.5893 78.2042 90.5893V84.8747L14.528 56.8838C14.123 57.428 13.8848 58.0448 13.8848 58.6978ZM106.791 53.4553L121.084 59.7318L128.231 56.5935L113.937 50.3169L106.791 53.4553ZM13.8848 33.555V35.6412C13.8848 36.9292 14.7901 38.1264 16.267 38.7795L64.6971 60.0765L75.822 64.9745C76.5604 65.301 77.3705 65.4643 78.2042 65.4643V59.75L14.528 31.7409C14.123 32.2851 13.8848 32.902 13.8848 33.555ZM128.231 31.4689L78.2042 9.46429V15.741L121.084 34.589L128.231 31.4507V31.4689Z" fill="url(#paint0_linear_28_1284)"/>
<path d="M141.881 31.7409C141.476 31.1967 140.88 30.7432 140.142 30.4166L80.587 4.2398C79.1101 3.58673 77.2996 3.58673 75.8226 4.2398L16.2676 30.4166C15.5291 30.7432 14.9336 31.1967 14.5286 31.7409L78.2048 59.7318L141.881 31.7409ZM70.9867 50.2806L28.1786 31.4688L78.2048 9.46429L128.231 31.4507L78.2048 53.4552L70.9867 50.2806Z" fill="url(#paint1_linear_28_1284)"/>
<path d="M141.881 56.8838C141.476 56.3396 140.88 55.8861 140.142 55.5595L121.084 47.1786L113.938 50.3169L128.231 56.5935L121.084 59.7318L78.2048 78.5799L58.4802 69.9087L28.1786 56.5935L42.4718 50.3169L35.3253 47.1786L16.2676 55.5595C15.5291 55.8861 14.9336 56.3396 14.5286 56.8838L78.2048 84.8748L141.881 56.8838Z" fill="url(#paint2_linear_28_1284)"/>
<path d="M140.142 80.7023L121.084 72.3215L113.938 75.4598L128.231 81.7363L121.084 84.8748L78.2048 103.723L58.4802 95.0518L28.1786 81.7363L42.4718 75.4598L35.3253 72.3215L16.2676 80.7023C15.5291 81.0291 14.9336 81.4822 14.5286 82.0271L78.2048 110.017L141.881 82.0271C141.476 81.4822 140.88 81.0291 140.142 80.7023Z" fill="url(#paint3_linear_28_1284)"/>
<g style="mix-blend-mode:multiply" opacity="0.75">
<path d="M35.3251 53.4552L42.4717 50.3169L39.9704 49.2285L35.3251 47.1786L28.1785 50.3169L35.3251 53.4552Z" fill="#2A2564"/>
</g>
<g style="mix-blend-mode:multiply" opacity="0.75">
<path d="M121.083 53.4552L128.23 50.3169L125.728 49.2285L121.083 47.1786L113.936 50.3169L121.083 53.4552Z" fill="#2A2564"/>
</g>
<g style="mix-blend-mode:multiply" opacity="0.75">
<path d="M35.3251 78.5982L42.4717 75.4598L39.9704 74.3533L35.3251 72.3215L28.1785 75.4598L35.3251 78.5982Z" fill="#2A2564"/>
</g>
<g style="mix-blend-mode:multiply" opacity="0.75">
<path d="M121.083 78.5982L128.23 75.4598L125.728 74.3533L121.083 72.3215L113.936 75.4598L121.083 78.5982Z" fill="#2A2564"/>
</g>
<g style="mix-blend-mode:multiply" opacity="0.75">
<path d="M35.3233 53.4554V59.7502L49.6166 53.4554L42.4699 50.317L35.3233 53.4554Z" fill="#2A2564"/>
</g>
<g style="mix-blend-mode:multiply" opacity="0.75">
<path d="M35.3233 78.5981V84.8932L49.6166 78.5981L42.4699 75.4598L35.3233 78.5981Z" fill="#2A2564"/>
</g>
<g style="mix-blend-mode:multiply" opacity="0.75">
<path d="M121.085 78.5981V84.8932L106.791 78.5981L113.938 75.4598L121.085 78.5981Z" fill="#2A2564"/>
</g>
<g style="mix-blend-mode:multiply" opacity="0.75">
<path d="M121.085 53.4554V59.7502L106.791 53.4554L113.938 50.317L121.085 53.4554Z" fill="#2A2564"/>
</g>
</g>
<defs>
<linearGradient id="paint0_linear_28_1284" x1="39.2076" y1="99.1691" x2="78.5672" y2="9.64034" gradientUnits="userSpaceOnUse">
<stop stop-color="#6482EE"/>
<stop offset="0.18" stop-color="#7563EB"/>
<stop offset="0.36" stop-color="#6276E5"/>
<stop offset="0.55" stop-color="#5A5ADA"/>
<stop offset="0.74" stop-color="#523DCA"/>
<stop offset="0.93" stop-color="#4832DD"/>
<stop offset="1" stop-color="#2F23CE"/>
</linearGradient>
<linearGradient id="paint1_linear_28_1284" x1="94.1179" y1="52.7477" x2="73.2798" y2="5.35684" gradientUnits="userSpaceOnUse">
<stop stop-color="#B4C3F9"/>
<stop offset="1" stop-color="#7664EE"/>
</linearGradient>
<linearGradient id="paint2_linear_28_1284" x1="94.1179" y1="77.8906" x2="73.2814" y2="30.483" gradientUnits="userSpaceOnUse">
<stop stop-color="#B4BCF9"/>
<stop offset="1" stop-color="#646BEE"/>
</linearGradient>
<linearGradient id="paint3_linear_28_1284" x1="94.1179" y1="103.016" x2="73.2798" y2="55.6245" gradientUnits="userSpaceOnUse">
<stop stop-color="#B4B4F9"/>
<stop offset="1" stop-color="#6D64EE"/>
</linearGradient>
</defs>
</svg>
