<svg width="145" height="120" viewBox="0 0 145 120" fill="none" xmlns="http://www.w3.org/2000/svg">
<path d="M109.293 27.0244L124.558 18.2243C97.3059 2.5141 53.1216 2.5141 25.8695 18.2243L41.1344 27.0244C59.9565 16.1749 90.471 16.1749 109.293 27.0244Z" fill="#695EE4"/>
<path d="M109.293 27.0245C90.4711 16.1749 59.9566 16.1749 41.1345 27.0245V34.9938V50.4511C59.9551 39.6015 90.4711 39.6015 109.293 50.4511L124.558 41.651C119.908 38.97 114.76 36.755 109.293 34.9907V27.0245Z" fill="url(#paint0_linear_28_1361)"/>
<path d="M109.293 27.0243V50.4509L124.558 41.6508V18.2242L109.293 27.0243Z" fill="url(#paint1_linear_28_1361)"/>
<path d="M41.1343 66.4829L25.8694 75.283C-1.38273 59.5728 -1.38273 34.1014 25.8694 18.3927L41.1343 27.1928C22.3138 38.0408 22.3138 55.6319 41.1343 66.4829Z" fill="#695EE4"/>
<path d="M5.55682 49.1447C5.5952 49.534 5.64279 49.9218 5.70113 50.3096C5.73491 50.5334 5.76868 50.7572 5.8086 50.981C5.87615 51.3535 5.95598 51.726 6.04042 52.0969C6.08954 52.3115 6.131 52.5261 6.18473 52.7392C6.31676 53.2527 6.46875 53.7662 6.63456 54.2766C6.73281 54.5786 6.84642 54.8791 6.95696 55.1795C7.04754 55.4278 7.13965 55.6746 7.23791 55.9214C7.36841 56.2448 7.50504 56.5683 7.64782 56.8917C7.74454 57.1063 7.84586 57.3209 7.94872 57.534C11.0484 64.0333 17.0082 70.1739 25.8666 75.2798L27.5323 74.3187C28.9862 80.0225 33.5167 85.5162 41.1315 89.9048L25.8666 98.7049C12.2413 90.849 5.42786 80.5543 5.42786 70.2597V46.8331C5.42786 47.411 5.45703 47.9904 5.50001 48.5683C5.51537 48.763 5.53839 48.9531 5.55682 49.1447Z" fill="url(#paint2_linear_28_1361)"/>
<path d="M41.1344 66.4829V89.9079L25.8695 98.708V75.283L41.1344 66.4829Z" fill="url(#paint3_linear_28_1361)"/>
<path d="M31.4979 58.5503C27.5016 53.5915 26.1813 48.0932 27.5354 42.7788L27.5369 42.7803C27.5907 42.5688 27.6567 42.3588 27.7196 42.1473C27.7657 41.994 27.8041 41.8407 27.8547 41.6874C27.9254 41.4713 28.0083 41.2552 28.0866 41.0406C28.1541 40.8582 28.2201 40.6757 28.2938 40.4933C28.3783 40.2849 28.4688 40.0764 28.5625 39.8695C28.6469 39.6794 28.736 39.4893 28.8296 39.3008C28.9263 39.1015 29.0246 38.9022 29.129 38.7045C29.2395 38.4945 29.3593 38.286 29.479 38.0776C29.5804 37.9013 29.6771 37.7235 29.7845 37.5487C30.0056 37.187 30.2405 36.8283 30.4892 36.4711C30.5936 36.3209 30.7088 36.1722 30.8193 36.022C30.9897 35.789 31.1617 35.5575 31.3428 35.3261C31.4702 35.1651 31.6038 35.0042 31.7374 34.8433C31.9201 34.6225 32.1089 34.4018 32.3023 34.1841C32.439 34.0308 32.5772 33.876 32.7184 33.7243C32.941 33.4851 33.1728 33.2476 33.4093 33.0115C33.5351 32.8858 33.6564 32.7586 33.7854 32.6344C34.1508 32.2803 34.5284 31.9293 34.9245 31.5844C35.009 31.5108 35.0996 31.4388 35.184 31.3652C35.5095 31.0862 35.8426 30.8088 36.188 30.5344C36.34 30.4133 36.4966 30.2953 36.6532 30.1757C36.9511 29.9473 37.2535 29.7205 37.5652 29.4967C37.734 29.3756 37.906 29.2529 38.0779 29.1334C38.4065 28.905 38.7458 28.6781 39.0897 28.4543C39.2493 28.3501 39.4044 28.2459 39.5671 28.1432C40.0753 27.8213 40.5957 27.5039 41.1346 27.1927V50.6194C37.0248 52.9861 33.813 55.6778 31.4979 58.5503Z" fill="url(#paint4_linear_28_1361)"/>
<path d="M109.293 52.2598L124.558 61.0599C151.81 45.3497 151.81 19.8798 124.558 4.16956L109.293 12.9697C128.114 23.8192 128.114 41.4103 109.293 52.2598Z" fill="#695EE4"/>
<path d="M144.871 34.9218C144.833 35.3111 144.785 35.6989 144.727 36.0867C144.693 36.3105 144.659 36.5343 144.619 36.7581C144.552 37.1306 144.472 37.5031 144.387 37.874C144.338 38.0886 144.297 38.3032 144.243 38.5163C144.111 39.0298 143.959 39.5433 143.793 40.0537C143.695 40.3557 143.581 40.6561 143.471 40.9566C143.38 41.2049 143.288 41.4517 143.19 41.6985C143.059 42.0235 142.923 42.3454 142.78 42.6688C142.683 42.8834 142.582 43.098 142.479 43.3111C139.379 49.8104 133.42 55.951 124.561 61.0569L122.895 60.0958C121.442 65.7996 116.911 71.2933 109.296 75.6819L124.561 84.482C138.188 76.6261 145 66.3314 145 56.0368V32.6102C145 33.1881 144.972 33.7675 144.928 34.3454C144.911 34.5401 144.889 34.7317 144.871 34.9218Z" fill="url(#paint5_linear_28_1361)"/>
<path d="M109.293 52.2598V75.6863L124.558 84.4865V61.0599L109.293 52.2598Z" fill="#2A2564"/>
<path d="M118.93 44.3271C122.926 39.3684 124.247 33.87 122.891 28.5556L122.889 28.5572C122.836 28.3456 122.768 28.1356 122.707 27.9241C122.661 27.7708 122.622 27.6175 122.572 27.4642C122.501 27.2481 122.418 27.032 122.34 26.8174C122.272 26.6349 122.206 26.4525 122.133 26.2701C122.048 26.0617 121.958 25.8532 121.864 25.6463C121.779 25.4562 121.689 25.2661 121.597 25.0776C121.5 24.8783 121.402 24.679 121.297 24.4813C121.187 24.2713 121.067 24.0628 120.947 23.8544C120.846 23.6781 120.749 23.5003 120.642 23.3255C120.421 22.9638 120.186 22.6051 119.937 22.2479C119.833 22.0977 119.718 21.949 119.607 21.7988C119.437 21.5658 119.265 21.3343 119.084 21.1029C118.956 20.9419 118.823 20.781 118.689 20.62C118.506 20.3993 118.317 20.1786 118.124 19.9609C117.987 19.8076 117.849 19.6528 117.708 19.4995C117.485 19.2604 117.254 19.0228 117.019 18.7868C116.893 18.6611 116.772 18.5338 116.643 18.4097C116.277 18.0556 115.899 17.7046 115.503 17.3597C115.419 17.2861 115.328 17.214 115.244 17.1405C114.918 16.8615 114.585 16.5841 114.24 16.3097C114.088 16.1886 113.931 16.0705 113.775 15.951C113.477 15.7226 113.174 15.4957 112.863 15.2719C112.694 15.1508 112.523 15.0282 112.35 14.9086C112.021 14.6802 111.682 14.4533 111.338 14.2296C111.179 14.1253 111.024 14.0211 110.861 13.9184C110.353 13.5965 109.832 13.2792 109.293 12.968V36.3946C113.403 38.7644 116.615 41.4546 118.93 44.3271Z" fill="url(#paint6_linear_28_1361)"/>
<path d="M41.1344 72.7416L25.8695 81.5417C53.1216 97.2519 97.3059 97.2519 124.558 81.5417L109.293 72.7416C90.471 83.5926 59.9565 83.5926 41.1344 72.7416Z" fill="#695EE4"/>
<path d="M25.8695 81.5417V98.5411C53.1216 114.251 97.3059 114.251 124.558 98.5411V81.5417C97.3059 97.252 53.1216 97.252 25.8695 81.5417Z" fill="url(#paint7_linear_28_1361)"/>
<defs>
<linearGradient id="paint0_linear_28_1361" x1="56.3097" y1="43.3633" x2="58.7416" y2="20.6544" gradientUnits="userSpaceOnUse">
<stop stop-color="#6492EE"/>
<stop offset="0.192308" stop-color="#637CEB"/>
<stop offset="0.36" stop-color="#6276E5"/>
<stop offset="0.55" stop-color="#5A5EDA"/>
<stop offset="0.74" stop-color="#3D52CA"/>
<stop offset="0.93" stop-color="#1820B7"/>
<stop offset="1" stop-color="#091CAF"/>
</linearGradient>
<linearGradient id="paint1_linear_28_1361" x1="112.07" y1="43.2143" x2="122.396" y2="25.9332" gradientUnits="userSpaceOnUse">
<stop stop-color="#6492EE"/>
<stop offset="0.192308" stop-color="#637CEB"/>
<stop offset="0.36" stop-color="#6276E5"/>
<stop offset="0.55" stop-color="#5A5EDA"/>
<stop offset="0.74" stop-color="#3D52CA"/>
<stop offset="0.93" stop-color="#1820B7"/>
<stop offset="1" stop-color="#091CAF"/>
</linearGradient>
<linearGradient id="paint2_linear_28_1361" x1="23.2824" y1="86.6614" x2="23.2824" y2="109.581" gradientUnits="userSpaceOnUse">
<stop stop-color="#8291FF"/>
<stop offset="1" stop-color="#FEFEFD"/>
</linearGradient>
<linearGradient id="paint3_linear_28_1361" x1="28.6463" y1="91.4718" x2="38.972" y2="74.1911" gradientUnits="userSpaceOnUse">
<stop stop-color="#6492EE"/>
<stop offset="0.192308" stop-color="#637CEB"/>
<stop offset="0.36" stop-color="#6276E5"/>
<stop offset="0.55" stop-color="#5A5EDA"/>
<stop offset="0.74" stop-color="#3D52CA"/>
<stop offset="0.93" stop-color="#1820B7"/>
<stop offset="1" stop-color="#091CAF"/>
</linearGradient>
<linearGradient id="paint4_linear_28_1361" x1="29.5885" y1="51.5089" x2="39.8721" y2="35.1568" gradientUnits="userSpaceOnUse">
<stop stop-color="#6492EE"/>
<stop offset="0.192308" stop-color="#637CEB"/>
<stop offset="0.36" stop-color="#6276E5"/>
<stop offset="0.55" stop-color="#5A5EDA"/>
<stop offset="0.74" stop-color="#3D52CA"/>
<stop offset="0.93" stop-color="#1820B7"/>
<stop offset="1" stop-color="#091CAF"/>
</linearGradient>
<linearGradient id="paint5_linear_28_1361" x1="115.791" y1="72.834" x2="129.068" y2="40.5462" gradientUnits="userSpaceOnUse">
<stop stop-color="#6492EE"/>
<stop offset="0.192308" stop-color="#637CEB"/>
<stop offset="0.36" stop-color="#6276E5"/>
<stop offset="0.55" stop-color="#5A5EDA"/>
<stop offset="0.74" stop-color="#3D52CA"/>
<stop offset="0.93" stop-color="#1820B7"/>
<stop offset="1" stop-color="#091CAF"/>
</linearGradient>
<linearGradient id="paint6_linear_28_1361" x1="111.861" y1="37.2853" x2="122.145" y2="20.9333" gradientUnits="userSpaceOnUse">
<stop stop-color="#6492EE"/>
<stop offset="0.192308" stop-color="#637CEB"/>
<stop offset="0.36" stop-color="#6276E5"/>
<stop offset="0.55" stop-color="#5A5EDA"/>
<stop offset="0.74" stop-color="#3D52CA"/>
<stop offset="0.93" stop-color="#1820B7"/>
<stop offset="1" stop-color="#091CAF"/>
</linearGradient>
<linearGradient id="paint7_linear_28_1361" x1="43.8214" y1="103.861" x2="45.5387" y2="83.0574" gradientUnits="userSpaceOnUse">
<stop stop-color="#6492EE"/>
<stop offset="0.192308" stop-color="#637CEB"/>
<stop offset="0.36" stop-color="#6276E5"/>
<stop offset="0.55" stop-color="#5A5EDA"/>
<stop offset="0.74" stop-color="#3D52CA"/>
<stop offset="0.93" stop-color="#1820B7"/>
<stop offset="1" stop-color="#091CAF"/>
</linearGradient>
</defs>
</svg>
