<svg width="106" height="137" viewBox="0 0 106 137" fill="none" xmlns="http://www.w3.org/2000/svg">
<mask id="mask0_28_1442" style="mask-type:luminance" maskUnits="userSpaceOnUse" x="0" y="0" width="106" height="137">
<path d="M106 0H0V137H106V0Z" fill="white"/>
</mask>
<g mask="url(#mask0_28_1442)">
<path d="M105.471 28.6879L104.038 29.6043L99.5824 32.4629C99.9162 33.1175 100.112 33.8594 100.112 34.6449V99.4734C100.8 99.4734 101.466 99.277 102.075 98.8842L104.038 97.6186C105.255 96.8331 106.001 95.393 106.001 93.8437V30.87C106.001 30.0844 105.805 29.3425 105.471 28.6879Z" fill="#053993"/>
<path d="M59.4176 6.01697C59.0839 6.67158 58.8876 7.41347 58.8876 8.19901V71.1945C58.8876 72.7438 59.6336 74.1839 60.8506 74.9695L98.1467 98.9065C98.7557 99.2992 99.4224 99.4957 100.11 99.4957V34.6453C100.11 33.0961 99.3638 31.6559 98.1467 30.8704L59.4176 6.01697Z" fill="url(#paint0_linear_28_1442)"/>
<path d="M85.8429 41.2784L84.41 42.1949L79.954 45.0533C80.2878 45.708 80.484 46.4499 80.484 47.2355V112.064C81.1711 112.064 81.8384 111.867 82.447 111.475L84.41 110.209C85.627 109.424 86.3729 107.984 86.3729 106.435V43.4387C86.3729 42.6532 86.1766 41.9112 85.8429 41.2566V41.2784Z" fill="#053993"/>
<path d="M39.7897 18.6071C39.456 19.2617 39.2597 20.0036 39.2597 20.7892V83.7848C39.2597 85.334 40.0056 86.7741 41.2227 87.5597L78.5189 111.496C79.1274 111.89 79.7948 112.086 80.4819 112.086V47.2574C80.4819 45.708 79.736 44.2679 78.5189 43.4823L39.7897 18.6071Z" fill="url(#paint1_linear_28_1442)"/>
<path d="M66.2112 53.8901L64.7783 54.8066L60.3224 57.665C60.6561 58.3197 60.8524 59.0616 60.8524 59.8472V124.675C61.5394 124.675 62.2068 124.479 62.8153 124.086L64.7783 122.821C65.9953 122.035 66.7412 120.595 66.7412 119.046V56.0504C66.7412 55.2649 66.5449 54.5229 66.2112 53.8683V53.8901Z" fill="#053993"/>
<path d="M20.1581 31.1974C19.8243 31.852 19.6281 32.5939 19.6281 33.3794V96.375C19.6281 97.9242 20.374 99.3644 21.591 100.15L58.8873 124.087C59.4958 124.479 60.1632 124.676 60.8502 124.676V59.8476C60.8502 58.2984 60.1043 56.8582 58.8873 56.0727L20.1581 31.1974Z" fill="url(#paint2_linear_28_1442)"/>
<path d="M46.5833 66.4812L45.1502 67.3977L40.6943 70.2561C41.028 70.9107 41.2243 71.6527 41.2243 72.4382V137.267C41.9114 137.267 42.5788 137.07 43.1873 136.678L45.1502 135.412C46.3673 134.627 47.1133 133.187 47.1133 131.637V68.6415C47.1133 67.8559 46.9169 67.114 46.5833 66.4594V66.4812Z" fill="#053993"/>
<path d="M105.47 28.6877L100.111 32.1353L99.5814 32.4626C99.2476 31.808 98.7567 31.2624 98.1486 30.8697L59.4191 6.01623C59.7529 5.36162 60.2436 4.81611 60.8522 4.42335L62.8151 3.15776C64.0322 2.37222 65.524 2.37222 66.7411 3.15776L104.037 27.0947C104.646 27.4875 105.136 28.033 105.47 28.6877ZM84.4077 39.6852L47.1114 15.7482C45.8944 14.9626 44.4025 14.9626 43.1855 15.7482L41.2225 17.0137C40.614 17.4065 40.1232 17.952 39.7895 18.6066L78.5189 43.4601C79.1273 43.8528 79.6181 44.3984 79.9518 45.053L80.4818 44.7257L85.8407 41.2781C85.507 40.6234 85.0162 40.0779 84.4077 39.6852ZM64.7781 52.2756L27.4818 28.3386C26.2648 27.553 24.7729 27.553 23.5558 28.3386L21.5929 29.6041C20.9844 29.9969 20.4936 30.5424 20.1599 31.197L58.8891 56.0505C59.4977 56.4432 59.9885 56.9888 60.3222 57.6434L60.8522 57.316L66.2111 53.8685C65.8773 53.2138 65.3866 52.6683 64.7781 52.2756ZM45.1485 64.8878L7.85216 40.9507C6.63512 40.1652 5.14326 40.1652 3.92623 40.9507L1.96326 42.2164C1.35475 42.6091 0.864008 43.1547 0.530304 43.8093L39.2595 68.6627C39.8681 69.0555 40.3589 69.601 40.6925 70.2556L41.2225 69.9283L46.5814 66.4806C46.2477 65.826 45.757 65.2805 45.1485 64.8878Z" fill="url(#paint3_linear_28_1442)"/>
<path d="M0.53 43.8099C0.196296 44.4645 0 45.2064 0 45.9919V108.988C0 110.537 0.745926 111.977 1.96296 112.762L39.2592 136.699C39.8678 137.093 40.5351 137.288 41.2222 137.288V72.4601C41.2222 70.9109 40.4763 69.4708 39.2592 68.6852L0.53 43.8099Z" fill="url(#paint4_linear_28_1442)"/>
</g>
<defs>
<linearGradient id="paint0_linear_28_1442" x1="66.3861" y1="78.5047" x2="97.3094" y2="30.3276" gradientUnits="userSpaceOnUse">
<stop stop-color="#6492EE"/>
<stop offset="0.192308" stop-color="#637CEB"/>
<stop offset="0.36" stop-color="#6276E5"/>
<stop offset="0.55" stop-color="#5A5EDA"/>
<stop offset="0.74" stop-color="#3D52CA"/>
<stop offset="0.93" stop-color="#1820B7"/>
<stop offset="1" stop-color="#091CAF"/>
</linearGradient>
<linearGradient id="paint1_linear_28_1442" x1="46.7582" y1="91.0947" x2="77.6813" y2="42.9173" gradientUnits="userSpaceOnUse">
<stop stop-color="#6492EE"/>
<stop offset="0.192308" stop-color="#637CEB"/>
<stop offset="0.36" stop-color="#6276E5"/>
<stop offset="0.55" stop-color="#5A5EDA"/>
<stop offset="0.74" stop-color="#3D52CA"/>
<stop offset="0.93" stop-color="#1820B7"/>
<stop offset="1" stop-color="#091CAF"/>
</linearGradient>
<linearGradient id="paint2_linear_28_1442" x1="27.1266" y1="103.685" x2="58.0498" y2="55.5078" gradientUnits="userSpaceOnUse">
<stop stop-color="#6492EE"/>
<stop offset="0.192308" stop-color="#637CEB"/>
<stop offset="0.36" stop-color="#6276E5"/>
<stop offset="0.55" stop-color="#5A5EDA"/>
<stop offset="0.74" stop-color="#3D52CA"/>
<stop offset="0.93" stop-color="#1820B7"/>
<stop offset="1" stop-color="#091CAF"/>
</linearGradient>
<linearGradient id="paint3_linear_28_1442" x1="63.1685" y1="55.8323" x2="39.1166" y2="18.3487" gradientUnits="userSpaceOnUse">
<stop stop-color="#B4C1F9"/>
<stop offset="1" stop-color="#646BEE"/>
</linearGradient>
<linearGradient id="paint4_linear_28_1442" x1="7.49851" y1="116.297" x2="38.4216" y2="68.1202" gradientUnits="userSpaceOnUse">
<stop stop-color="#6492EE"/>
<stop offset="0.192308" stop-color="#637CEB"/>
<stop offset="0.36" stop-color="#6276E5"/>
<stop offset="0.55" stop-color="#5A5EDA"/>
<stop offset="0.74" stop-color="#3D52CA"/>
<stop offset="0.93" stop-color="#1820B7"/>
<stop offset="1" stop-color="#091CAF"/>
</linearGradient>
</defs>
</svg>
