<svg width="152" height="120" viewBox="0 0 152 120" fill="none" xmlns="http://www.w3.org/2000/svg">
<path d="M89.8029 8.37694L76.3982 15.1539L62.9935 8.37694C63.3593 7.81219 63.8972 7.34157 64.5642 7.00272L74.2466 2.10825C75.5806 1.43055 77.2158 1.43055 78.5498 2.10825L88.2322 7.00272C88.8993 7.34157 89.4371 7.81219 89.8029 8.37694ZM88.2322 51.5613L78.5498 46.6668C77.2158 45.9891 75.5806 45.9891 74.2466 46.6668L64.5642 51.5613C63.8972 51.9002 63.3593 52.3707 62.9935 52.9356L76.3982 59.7125L89.8029 52.9356C89.4371 52.3707 88.8993 51.9002 88.2322 51.5613ZM44.1236 29.2726L34.4412 24.3782C33.1073 23.7004 31.472 23.7004 30.138 24.3782L20.4556 29.2726C19.7886 29.6114 19.2507 30.0821 18.8849 30.6468L32.2896 37.4238L45.6944 30.6468C45.3286 30.0821 44.7907 29.6114 44.1236 29.2726ZM133.911 30.6468C133.545 30.0821 133.008 29.6114 132.341 29.2726L122.658 24.3782C121.324 23.7004 119.689 23.7004 118.355 24.3782L108.673 29.2726C108.006 29.6114 107.468 30.0821 107.102 30.6468L120.507 37.4238L133.911 30.6468ZM44.1236 73.85L34.4412 68.9555C33.1073 68.2778 31.472 68.2778 30.138 68.9555L20.4556 73.85C19.7886 74.1888 19.2507 74.6595 18.8849 75.2242L32.2896 82.0012L45.6944 75.2242C45.3286 74.6595 44.7907 74.1888 44.1236 73.85ZM132.341 73.85L122.658 68.9555C121.324 68.2778 119.689 68.2778 118.355 68.9555L108.673 73.85C108.006 74.1888 107.468 74.6595 107.102 75.2242L120.507 82.0012L133.911 75.2242C133.545 74.6595 133.008 74.1888 132.341 73.85ZM88.2322 96.1197L78.5498 91.2257C77.2158 90.5478 75.5806 90.5478 74.2466 91.2257L64.5642 96.1197C63.8972 96.4591 63.3593 96.9292 62.9935 97.4943L76.3982 104.271L89.8029 97.4943C89.4371 96.9292 88.8993 96.4591 88.2322 96.1197Z" fill="url(#paint0_linear_28_1261)"/>
<path d="M133.911 75.2243C134.277 75.7891 134.492 76.4291 134.492 77.1067V86.8957C134.492 88.2322 133.675 89.4747 132.341 90.1528L122.658 95.0468C121.992 95.3853 121.26 95.5555 120.507 95.5555V82.0012L133.911 75.2243ZM32.2898 37.4238V50.9778C33.0428 50.9778 33.7744 50.8084 34.4414 50.4695L44.1238 45.575C45.4578 44.8973 46.2754 43.6549 46.2754 42.3183V32.5293C46.2754 31.8517 46.0603 31.2117 45.6945 30.6469L32.2898 37.4238ZM32.2898 81.9824V95.5367C33.0428 95.5367 33.7744 95.3665 34.4414 95.028L44.1238 90.134C45.4578 89.4559 46.2754 88.2134 46.2754 86.8769V77.0879C46.2754 76.4103 46.0603 75.7702 45.6945 75.2054L32.2898 81.9824ZM76.3983 104.271V117.825C77.1514 117.825 77.883 117.656 78.55 117.317L88.2324 112.423C89.5663 111.745 90.384 110.502 90.384 109.166V99.3767C90.384 98.6988 90.1689 98.0585 89.8031 97.4943L76.3983 104.271ZM76.3983 15.154V28.7079C77.1514 28.7079 77.883 28.5385 78.55 28.1997L88.2324 23.3052C89.5663 22.6274 90.384 21.385 90.384 20.0484V10.2595C90.384 9.58184 90.1689 8.94176 89.8031 8.37701L76.3983 15.154ZM76.3983 59.7125V73.2665C77.1514 73.2665 77.883 73.097 78.55 72.7582L88.2324 67.8637C89.5663 67.186 90.384 65.9436 90.384 64.607V54.8181C90.384 54.1403 90.1689 53.5003 89.8031 52.9356L76.3983 59.7125ZM133.911 30.6469L120.507 37.4238V50.9778C121.26 50.9778 121.992 50.8084 122.658 50.4695L132.341 45.575C133.675 44.8973 134.492 43.6549 134.492 42.3183V32.5293C134.492 31.8517 134.277 31.2117 133.911 30.6469Z" fill="#292564"/>
<path d="M120.507 37.4238V50.9778C119.753 50.9778 119.022 50.8084 118.355 50.4695L108.673 45.575C107.338 44.8973 106.521 43.6549 106.521 42.3183V32.5293C106.521 31.8517 106.736 31.2117 107.102 30.6469L120.507 37.4238ZM18.3036 32.5293V42.3183C18.3036 43.6549 19.1213 44.8973 20.4553 45.575L30.1377 50.4695C30.8047 50.8084 31.5362 50.9778 32.2893 50.9778V37.4238L18.8846 30.6469C18.5188 31.2117 18.3036 31.8517 18.3036 32.5293ZM18.3036 77.1067V86.8957C18.3036 88.2322 19.1213 89.4747 20.4553 90.1528L30.1377 95.0468C30.8047 95.3853 31.5362 95.5555 32.2893 95.5555V82.0012L18.8846 75.2243C18.5188 75.7891 18.3036 76.4291 18.3036 77.1067ZM62.4123 10.2595V20.0484C62.4123 21.385 63.2299 22.6274 64.5639 23.3052L74.2463 28.1997C74.9132 28.5385 75.6448 28.7079 76.3979 28.7079V15.154L62.9932 8.37701C62.6274 8.94176 62.4123 9.58184 62.4123 10.2595ZM62.4123 99.3767V109.166C62.4123 110.502 63.2299 111.764 64.5639 112.423L74.2463 117.317C74.9132 117.656 75.6448 117.825 76.3979 117.825V104.271L62.9932 97.4943C62.6274 98.0585 62.4123 98.6988 62.4123 99.3767ZM62.4123 54.8181V64.607C62.4123 65.9436 63.2299 67.186 64.5639 67.8637L74.2463 72.7582C74.9132 73.097 75.6448 73.2665 76.3979 73.2665V59.7125L62.9932 52.9356C62.6274 53.5003 62.4123 54.1403 62.4123 54.8181ZM106.521 77.1067V86.8957C106.521 88.2322 107.338 89.4747 108.673 90.1528L118.355 95.0468C119.022 95.3853 119.753 95.5555 120.507 95.5555V82.0012L107.102 75.2243C106.736 75.7891 106.521 76.4291 106.521 77.1067Z" fill="url(#paint1_linear_28_1261)"/>
<defs>
<linearGradient id="paint0_linear_28_1261" x1="101.809" y1="91.4325" x2="60.2556" y2="9.18196" gradientUnits="userSpaceOnUse">
<stop stop-color="#B4C1F9"/>
<stop offset="1" stop-color="#6470EE"/>
</linearGradient>
<linearGradient id="paint1_linear_28_1261" x1="43.9942" y1="102.031" x2="85.5468" y2="19.7623" gradientUnits="userSpaceOnUse">
<stop stop-color="#647DEE"/>
<stop offset="0.18" stop-color="#6368EB"/>
<stop offset="0.36" stop-color="#626DE5"/>
<stop offset="0.55" stop-color="#5E5ADA"/>
<stop offset="0.74" stop-color="#3D42CA"/>
<stop offset="0.93" stop-color="#3E3EDE"/>
<stop offset="1" stop-color="#6C58EB"/>
</linearGradient>
</defs>
</svg>
