<svg width="36" height="36" viewBox="0 0 36 36" fill="none" xmlns="http://www.w3.org/2000/svg">
<g clip-path="url(#clip0_38_2502)">
<path fill-rule="evenodd" clip-rule="evenodd" d="M27.4907 13.7715C25.3097 13.7715 23.5442 15.5503 23.5442 17.7303C23.5442 19.918 25.3175 21.689 27.4907 21.689C29.6717 21.689 31.4372 19.9102 31.4372 17.7303C31.4372 15.5503 29.6708 13.7715 27.4907 13.7715ZM27.4907 22.7291C24.742 22.7291 22.5073 20.4875 22.5073 17.7303C22.5073 14.973 24.742 12.7314 27.4907 12.7314C30.2394 12.7314 32.4741 14.973 32.4741 17.7303C32.4741 20.4875 30.2394 22.7291 27.4907 22.7291Z" fill="#2A2564"/>
<path fill-rule="evenodd" clip-rule="evenodd" d="M26.4539 19.7487C26.3154 19.7487 26.1847 19.6948 26.0852 19.595L25.1868 18.6939C24.9869 18.4933 24.9869 18.1626 25.1868 17.962C25.3868 17.7615 25.7165 17.7615 25.9164 17.962L26.4539 18.4933L29.0641 15.875C29.2641 15.6745 29.5938 15.6745 29.7937 15.875C29.9937 16.0756 29.9937 16.4063 29.7937 16.6069L26.8148 19.595C26.7221 19.6939 26.5924 19.7487 26.4539 19.7487Z" fill="#2A2564"/>
<path fill-rule="evenodd" clip-rule="evenodd" d="M25.4014 24.863H11.3652C9.93721 24.863 8.76183 23.6918 8.755 22.2516V4.52136C8.755 3.08894 9.92257 1.90993 11.3584 1.90308H23.0604C23.3443 1.90308 23.5745 2.13399 23.5745 2.41871C23.5745 2.70343 23.3443 2.93435 23.0604 2.93435H11.3584C10.4903 2.94217 9.78407 3.65056 9.78407 4.51354V22.2437C9.79187 23.1145 10.4981 23.8229 11.3584 23.8229H25.3868C26.2549 23.8151 26.9611 23.1067 26.9611 22.2437V22.2134C26.9611 21.9287 27.1913 21.6978 27.4751 21.6978C27.759 21.6978 27.9892 21.9287 27.9892 22.2134V22.2437C28.0048 23.6762 26.8372 24.8552 25.4014 24.863Z" fill="#2A2564"/>
<path fill-rule="evenodd" clip-rule="evenodd" d="M27.4907 13.7716C27.2069 13.7716 26.9767 13.5407 26.9767 13.256V7.46363C26.9767 7.17891 27.2069 6.948 27.4907 6.948C27.7746 6.948 28.0048 7.17891 28.0048 7.46363V13.256C28.0048 13.5407 27.7746 13.7716 27.4907 13.7716Z" fill="#2A2564"/>
<path fill-rule="evenodd" clip-rule="evenodd" d="M23.5823 6.94692H26.3466L23.5823 3.78951V6.94692ZM27.4908 7.97916H23.0673C22.7834 7.97916 22.5532 7.74825 22.5532 7.46353V2.4109C22.5532 2.19564 22.6839 2.00289 22.8907 1.9256C22.9522 1.90211 23.0136 1.89526 23.0751 1.89526C23.2214 1.89526 23.3589 1.95691 23.4594 2.07236L27.8819 7.12499C28.0204 7.27861 28.0507 7.49484 27.9668 7.67976C27.8741 7.86371 27.6898 7.97916 27.4908 7.97916Z" fill="#2A2564"/>
<path fill-rule="evenodd" clip-rule="evenodd" d="M20.4571 4.78273H11.1428C10.859 4.78273 10.6288 4.55182 10.6288 4.2671C10.6288 3.98238 10.859 3.75146 11.1428 3.75146H20.4571C20.7409 3.75146 20.9711 3.98238 20.9711 4.2671C20.9711 4.544 20.7409 4.78273 20.4571 4.78273Z" fill="#2A2564"/>
<path fill-rule="evenodd" clip-rule="evenodd" d="M20.4571 7.81766H11.1428C10.859 7.81766 10.6288 7.58675 10.6288 7.30203C10.6288 7.0173 10.859 6.78639 11.1428 6.78639L20.4571 6.77856C20.7409 6.77856 20.9711 7.00947 20.9711 7.2942C20.9711 7.58675 20.7409 7.81766 20.4571 7.81766Z" fill="#2A2564"/>
<path fill-rule="evenodd" clip-rule="evenodd" d="M25.617 10.8596H11.1428C10.859 10.8596 10.6288 10.6287 10.6288 10.344C10.6288 10.0593 10.859 9.82837 11.1428 9.82837H25.617C25.9008 9.82837 26.131 10.0593 26.131 10.344C26.1388 10.6287 25.9086 10.8596 25.617 10.8596Z" fill="#2A2564"/>
<path fill-rule="evenodd" clip-rule="evenodd" d="M23.275 13.8948H11.1428C10.859 13.8948 10.6288 13.6639 10.6288 13.3792C10.6288 13.0944 10.859 12.8635 11.1428 12.8635H23.275C23.5589 12.8635 23.7891 13.0944 23.7891 13.3792C23.7969 13.6639 23.5589 13.8948 23.275 13.8948Z" fill="#2A2564"/>
<path fill-rule="evenodd" clip-rule="evenodd" d="M21.8695 16.9368H11.1428C10.859 16.9368 10.6288 16.7059 10.6288 16.4212C10.6288 16.1364 10.859 15.9055 11.1428 15.9055H21.8616C22.1455 15.9055 22.3757 16.1364 22.3757 16.4212C22.3845 16.698 22.1543 16.9368 21.8695 16.9368Z" fill="#2A2564"/>
<path fill-rule="evenodd" clip-rule="evenodd" d="M19.5129 19.9719H11.1438C10.86 19.9719 10.6298 19.741 10.6298 19.4563C10.6298 19.1716 10.86 18.9407 11.1438 18.9407H19.5129C19.7967 18.9407 20.0269 19.1716 20.0269 19.4563C20.0347 19.741 19.8045 19.9719 19.5129 19.9719Z" fill="#2A2564"/>
<path fill-rule="evenodd" clip-rule="evenodd" d="M23.7432 23.0059H11.1428C10.859 23.0059 10.6288 22.775 10.6288 22.4902C10.6288 22.2055 10.859 21.9746 11.1428 21.9746H23.7432C24.0271 21.9746 24.2573 22.2055 24.2573 22.4902C24.2573 22.775 24.0271 23.0059 23.7432 23.0059Z" fill="#2A2564"/>
<path fill-rule="evenodd" clip-rule="evenodd" d="M18.3843 27.8356C18.1004 27.8356 17.8702 27.6046 17.8702 27.3199V24.3396C17.8702 24.0549 18.1004 23.824 18.3843 23.824C18.6681 23.824 18.8983 24.0549 18.8983 24.3396V27.3199C18.9061 27.5968 18.6681 27.8356 18.3843 27.8356Z" fill="#2A2564"/>
<path fill-rule="evenodd" clip-rule="evenodd" d="M30.8383 31.6866C30.5545 31.6866 30.3243 31.4557 30.3243 31.171V27.8355H6.44422V30.4313C6.44422 30.716 6.21403 30.9469 5.93018 30.9469C5.64633 30.9469 5.41614 30.716 5.41614 30.4313V27.312C5.41614 27.0273 5.64633 26.7964 5.93018 26.7964H30.8462C31.13 26.7964 31.3602 27.0273 31.3602 27.312V31.1631C31.3602 31.4479 31.13 31.6866 30.8383 31.6866Z" fill="#2A2564"/>
<path fill-rule="evenodd" clip-rule="evenodd" d="M5.92922 30.9468C4.79286 30.9468 3.87109 31.8714 3.87109 33.0113C3.87109 34.1512 4.79286 35.0758 5.92922 35.0758C7.06557 35.0758 7.98734 34.1512 7.98734 33.0113C7.98734 31.8714 7.06557 30.9468 5.92922 30.9468ZM5.92922 36.1149C4.22419 36.1149 2.83521 34.7206 2.83521 33.0113C2.83521 31.301 4.22517 29.9077 5.92922 29.9077C7.63327 29.9077 9.02323 31.302 9.02323 33.0113C9.02323 34.7206 7.63424 36.1149 5.92922 36.1149Z" fill="#2A2564"/>
<path fill-rule="evenodd" clip-rule="evenodd" d="M29.5176 34.344H32.1669V31.6865H29.5176V34.344ZM32.6809 35.3762H28.9948C28.711 35.3762 28.4808 35.1453 28.4808 34.8606V31.1709C28.4808 30.8862 28.711 30.6553 28.9948 30.6553H32.6809C32.9648 30.6553 33.1949 30.8862 33.1949 31.1709V34.8606C33.1949 35.1453 32.9648 35.3762 32.6809 35.3762Z" fill="#2A2564"/>
</g>
<defs>
<clipPath id="clip0_38_2502">
<rect width="34" height="36" fill="white" transform="translate(1)"/>
</clipPath>
</defs>
</svg>
