<svg width="41" height="44" viewBox="0 0 41 44" fill="none" xmlns="http://www.w3.org/2000/svg">
<g clip-path="url(#clip0_39_338)">
<path d="M36.5176 19.3577C35.3945 19.3577 34.4579 20.1783 34.2436 21.2683H29.8419C29.7323 18.8178 28.7799 16.5937 27.2753 14.8956L30.3876 11.695C31.2886 12.3099 32.5151 12.2091 33.3092 11.3925C34.2153 10.4607 34.2153 8.95005 33.3092 8.01828C32.4032 7.0865 30.9342 7.0865 30.0281 8.01828C29.234 8.83497 29.136 10.0963 29.734 11.0228L26.6217 14.2234C24.9704 12.6762 22.8076 11.6967 20.4247 11.5839V7.05737C21.4846 6.83703 22.2827 5.87385 22.2827 4.71892C22.2827 3.40122 21.2439 2.33301 19.9626 2.33301C18.6812 2.33301 17.6425 3.40122 17.6425 4.71892C17.6425 5.87385 18.4405 6.83703 19.5004 7.05737V11.5839C17.1175 11.6966 14.9547 12.6761 13.3035 14.2233L10.1911 11.0228C10.7891 10.0962 10.6911 8.83488 9.897 8.01819C8.99093 7.08642 7.52195 7.08642 6.61588 8.01819C5.70981 8.94997 5.70981 10.4606 6.61588 11.3924C7.41 12.209 8.63655 12.3098 9.53751 11.6949L12.6498 14.8955C11.1453 16.5937 10.1928 18.8178 10.0832 21.2683H5.68144C5.46717 20.1783 4.53057 19.3576 3.4075 19.3576C2.12615 19.3576 1.0874 20.4259 1.0874 21.7435C1.0874 23.0612 2.12615 24.1295 3.4075 24.1295C4.53057 24.1295 5.46717 23.3088 5.68144 22.2188H10.0831C10.1928 24.6693 11.1452 26.8935 12.6498 28.5916L9.53751 31.7922C8.63655 31.1773 7.40996 31.278 6.61584 32.0947C5.70977 33.0265 5.70977 34.5371 6.61584 35.4689C7.52191 36.4007 8.99089 36.4007 9.89696 35.4689C10.6911 34.6522 10.7891 33.3909 10.1911 32.4643L13.3034 29.2637C14.9547 30.811 17.1175 31.7905 19.5003 31.9032V36.4297C18.4405 36.6501 17.6424 37.6132 17.6424 38.7682C17.6424 40.0859 18.6812 41.1541 19.9625 41.1541C21.2439 41.1541 22.2826 40.0859 22.2826 38.7682C22.2826 37.6132 21.4846 36.6501 20.4247 36.4297V31.9032C22.8076 31.7905 24.9704 30.811 26.6217 29.2637L29.734 32.4643C29.136 33.3909 29.234 34.6522 30.0281 35.4689C30.9342 36.4007 32.4032 36.4007 33.3092 35.4689C34.2153 34.5371 34.2153 33.0265 33.3092 32.0947C32.5151 31.278 31.2885 31.1773 30.3876 31.7922L27.2753 28.5916C28.7799 26.8935 29.7323 24.6693 29.8419 22.2188H34.2437C34.4579 23.3088 35.3945 24.1295 36.5176 24.1295C37.7989 24.1295 38.8377 23.0612 38.8377 21.7435C38.8377 20.4259 37.7989 19.3577 36.5176 19.3577Z" fill="#2A2564"/>
<path d="M17.071 20.4445V18.9794C17.071 18.1852 17.3718 17.4385 17.9179 16.8768C18.4641 16.3152 19.1902 16.0059 19.9626 16.0059C20.7349 16.0059 21.4611 16.3152 22.0072 16.8768C22.5533 17.4384 22.8541 18.1852 22.8541 18.9794V20.4445C22.8541 21.2387 22.5533 21.9855 22.0072 22.5471C21.4611 23.1087 20.7349 23.4181 19.9626 23.4181C19.1902 23.4181 18.4641 23.1087 17.9179 22.5471C17.3718 21.9855 17.071 21.2387 17.071 20.4445Z" fill="white"/>
<path d="M25.6742 27.7588C24.6918 28.7338 23.4739 29.4595 22.1171 29.8371C21.4303 30.0282 20.708 30.1301 19.9625 30.1301C19.2171 30.1301 18.4948 30.0283 17.808 29.8371C16.4512 29.4595 15.2332 28.7338 14.2508 27.7588L14.7007 25.81C14.8079 25.3453 15.1058 24.9528 15.5179 24.733L18.0675 23.373C18.6241 23.7556 19.2779 23.961 19.9625 23.961C20.6472 23.961 21.301 23.7554 21.8576 23.3728L24.4072 24.733C24.8192 24.9527 25.1172 25.3453 25.2244 25.8099L25.6742 27.7588Z" fill="white"/>
</g>
<defs>
<clipPath id="clip0_39_338">
<rect width="41" height="44" fill="white"/>
</clipPath>
</defs>
</svg>
