<svg width="36" height="36" viewBox="0 0 36 36" fill="none" xmlns="http://www.w3.org/2000/svg">
<g clip-path="url(#clip0_39_346)">
<path d="M17.1859 18.2933C16.9734 18.2933 16.8009 18.1171 16.8009 17.9001V15.9009C16.8009 15.6838 16.9734 15.5076 17.1859 15.5076C17.3984 15.5076 17.5709 15.6838 17.5709 15.9009V17.9001C17.5709 18.1171 17.3984 18.2933 17.1859 18.2933ZM20.3806 19.1679C20.3152 19.1679 20.2489 19.1506 20.1881 19.1152C20.0041 19.0066 19.9409 18.766 20.0472 18.578L21.0259 16.8462C21.1321 16.6582 21.3677 16.5937 21.5518 16.7023C21.7358 16.8108 21.7989 17.0515 21.6927 17.2394L20.714 18.9712C20.6432 19.0979 20.5138 19.1679 20.3806 19.1679ZM22.7206 21.5571C22.5874 21.5571 22.4581 21.4864 22.3872 21.3605C22.281 21.1726 22.3441 20.9319 22.5281 20.8234L24.2236 19.8238C24.4077 19.7152 24.6433 19.7797 24.7496 19.9677C24.8558 20.1557 24.7927 20.3963 24.6086 20.5049L22.9131 21.5045C22.8523 21.5406 22.7861 21.5571 22.7206 21.5571ZM25.5342 24.821H23.5769C23.3643 24.821 23.1919 24.6448 23.1919 24.4278C23.1919 24.2107 23.3643 24.0345 23.5769 24.0345H25.5342C25.7467 24.0345 25.9192 24.2107 25.9192 24.4278C25.9192 24.6448 25.7467 24.821 25.5342 24.821ZM24.4154 29.0844C24.3499 29.0844 24.2837 29.0671 24.2229 29.0318L22.5274 28.0322C22.3433 27.9236 22.2802 27.683 22.3864 27.495C22.4927 27.307 22.7283 27.2425 22.9123 27.3511L24.6079 28.3507C24.7919 28.4592 24.855 28.6999 24.7488 28.8878C24.6779 29.0137 24.5486 29.0844 24.4154 29.0844ZM21.36 32.2059C21.2268 32.2059 21.0975 32.1352 21.0266 32.0093L20.048 30.2775C19.9417 30.0896 20.0048 29.8489 20.1889 29.7404C20.3729 29.6318 20.6085 29.6963 20.7148 29.8843L21.6934 31.6161C21.7997 31.8041 21.7366 32.0447 21.5525 32.1533C21.4917 32.1886 21.4255 32.2059 21.36 32.2059ZM17.1859 33.3479C16.9734 33.3479 16.8009 33.1717 16.8009 32.9547V30.9555C16.8009 30.7384 16.9734 30.5622 17.1859 30.5622C17.3984 30.5622 17.5709 30.7384 17.5709 30.9555V32.9547C17.5709 33.1717 17.3984 33.3479 17.1859 33.3479ZM13.0118 32.2059C12.9463 32.2059 12.8801 32.1886 12.8193 32.1533C12.6352 32.0447 12.5721 31.8041 12.6783 31.6161L13.657 29.8843C13.7633 29.6963 13.9989 29.6318 14.1829 29.7404C14.3669 29.8489 14.4301 30.0896 14.3238 30.2775L13.3452 32.0093C13.2736 32.1352 13.1442 32.2059 13.0118 32.2059ZM9.95641 29.0844C9.8232 29.0844 9.69384 29.0137 9.623 28.8878C9.51674 28.6999 9.57988 28.4592 9.76391 28.3507L11.4594 27.3511C11.6435 27.2425 11.8791 27.307 11.9853 27.495C12.0916 27.683 12.0285 27.9236 11.8444 28.0322L10.1489 29.0318C10.0881 29.0671 10.0219 29.0844 9.95641 29.0844ZM10.7949 24.821H8.83761C8.62509 24.821 8.45261 24.6448 8.45261 24.4278C8.45261 24.2107 8.62509 24.0345 8.83761 24.0345H10.7949C11.0075 24.0345 11.1799 24.2107 11.1799 24.4278C11.1799 24.6448 11.0075 24.821 10.7949 24.821ZM11.6512 21.5571C11.5857 21.5571 11.5195 21.5398 11.4587 21.5045L9.76314 20.5049C9.57911 20.3963 9.51597 20.1557 9.62223 19.9677C9.72849 19.7797 9.96411 19.7152 10.1481 19.8238L11.8437 20.8234C12.0277 20.9319 12.0908 21.1726 11.9846 21.3605C11.9137 21.4872 11.7844 21.5571 11.6512 21.5571ZM13.9912 19.1679C13.858 19.1679 13.7286 19.0971 13.6578 18.9712L12.6791 17.2394C12.5729 17.0515 12.636 16.8108 12.82 16.7023C13.0041 16.5937 13.2397 16.6582 13.3459 16.8462L14.3246 18.578C14.4309 18.766 14.3677 19.0066 14.1837 19.1152C14.1221 19.1513 14.0559 19.1679 13.9912 19.1679ZM17.1859 33.3479C12.3703 33.3479 8.45261 29.3463 8.45261 24.4278C8.45261 19.5092 12.3703 15.5076 17.1859 15.5076C22.0014 15.5076 25.9192 19.5092 25.9192 24.4278C25.9192 29.3463 22.0014 33.3479 17.1859 33.3479ZM17.1859 16.2941C12.7946 16.2941 9.22261 19.9425 9.22261 24.4278C9.22261 28.913 12.7946 32.5614 17.1859 32.5614C21.5772 32.5614 25.1492 28.913 25.1492 24.4278C25.1492 19.9425 21.5772 16.2941 17.1859 16.2941ZM19.0932 17.5501C19.0601 17.5501 19.027 17.5454 18.9931 17.5367C18.7875 17.4809 18.6658 17.2646 18.7205 17.0554L18.9738 16.0896C19.0285 15.8796 19.2402 15.7554 19.4451 15.8112C19.6507 15.867 19.7723 16.0833 19.7176 16.2925L19.4643 17.2583C19.4189 17.4345 19.2633 17.5501 19.0932 17.5501ZM22.3972 19.4982C22.2987 19.4982 22.2001 19.4596 22.1246 19.3833C21.9745 19.23 21.9745 18.9807 22.1246 18.8273L22.8169 18.1203C22.967 17.9669 23.2111 17.9669 23.3613 18.1203C23.5114 18.2736 23.5114 18.523 23.3613 18.6763L22.669 19.3833C22.5943 19.4604 22.4958 19.4982 22.3972 19.4982ZM24.3037 22.8729C24.1336 22.8729 23.978 22.7573 23.9318 22.5811C23.8772 22.3711 23.9988 22.1557 24.2044 22.0998L25.15 21.8411C25.3555 21.7852 25.5665 21.9095 25.6212 22.1195C25.6759 22.3295 25.5542 22.545 25.3486 22.6008L24.4038 22.8595C24.3707 22.8682 24.3368 22.8729 24.3037 22.8729ZM25.2501 27.0278C25.2169 27.0278 25.1838 27.0231 25.15 27.0145L24.2044 26.7557C23.9988 26.6999 23.8772 26.4836 23.9318 26.2744C23.9865 26.0644 24.1982 25.9401 24.4031 25.996L25.3486 26.2547C25.5542 26.3106 25.6759 26.5269 25.6212 26.7361C25.5758 26.9122 25.4202 27.0278 25.2501 27.0278ZM23.0887 30.8501C22.9901 30.8501 22.8916 30.8115 22.8161 30.7352L22.1239 30.0282C21.9737 29.8749 21.9737 29.6255 22.1239 29.4722C22.274 29.3188 22.5181 29.3188 22.6683 29.4722L23.3605 30.1792C23.5106 30.3326 23.5106 30.5819 23.3605 30.7352C23.2858 30.8123 23.1872 30.8501 23.0887 30.8501ZM19.3465 33.0577C19.1763 33.0577 19.0208 32.9421 18.9746 32.7659L18.7213 31.8001C18.6666 31.5901 18.7883 31.3746 18.9938 31.3188C19.1994 31.263 19.4104 31.3872 19.4651 31.5972L19.7184 32.563C19.7731 32.773 19.6514 32.9885 19.4458 33.0443C19.4127 33.053 19.3796 33.0577 19.3465 33.0577ZM15.0253 33.0577C14.9922 33.0577 14.9591 33.0538 14.9252 33.0443C14.7196 32.9885 14.5979 32.7722 14.6526 32.563L14.9059 31.5972C14.9606 31.3872 15.1724 31.263 15.3772 31.3188C15.5828 31.3746 15.7044 31.5909 15.6498 31.8001L15.3964 32.7659C15.351 32.9413 15.1955 33.0577 15.0253 33.0577ZM11.2831 30.8501C11.1846 30.8501 11.086 30.8115 11.0105 30.7352C10.8604 30.5819 10.8604 30.3326 11.0105 30.1792L11.7028 29.4722C11.8529 29.3188 12.097 29.3188 12.2471 29.4722C12.3973 29.6255 12.3973 29.8749 12.2471 30.0282L11.5549 30.7352C11.4802 30.8123 11.3817 30.8501 11.2831 30.8501ZM9.12174 27.0278C8.95157 27.0278 8.79603 26.9122 8.74983 26.7361C8.69516 26.5261 8.81682 26.3106 9.02241 26.2547L9.96796 25.996C10.1736 25.9401 10.3845 26.0644 10.4392 26.2744C10.4939 26.4844 10.3722 26.6999 10.1666 26.7557L9.22107 27.0145C9.18873 27.0239 9.15485 27.0278 9.12174 27.0278ZM10.0681 22.8729C10.035 22.8729 10.0018 22.8682 9.96796 22.8595L9.02241 22.6008C8.81682 22.545 8.69516 22.3287 8.74983 22.1195C8.8045 21.9095 9.01625 21.7852 9.22107 21.8411L10.1666 22.0998C10.3722 22.1557 10.4939 22.3719 10.4392 22.5811C10.393 22.7573 10.2375 22.8729 10.0681 22.8729ZM11.9746 19.4982C11.876 19.4982 11.7774 19.4596 11.702 19.3833L11.0098 18.6763C10.8596 18.523 10.8596 18.2736 11.0098 18.1203C11.1599 17.9669 11.404 17.9669 11.5542 18.1203L12.2464 18.8273C12.3965 18.9807 12.3965 19.23 12.2464 19.3833C12.1717 19.4604 12.0731 19.4982 11.9746 19.4982ZM15.2786 17.5501C15.1084 17.5501 14.9529 17.4345 14.9067 17.2583L14.6534 16.2925C14.5987 16.0825 14.7204 15.867 14.926 15.8112C15.1315 15.7546 15.3425 15.8796 15.3972 16.0896L15.6505 17.0554C15.7052 17.2654 15.5835 17.4809 15.3779 17.5367C15.3448 17.5462 15.311 17.5501 15.2786 17.5501ZM17.1859 25.8835C16.3997 25.8835 15.7606 25.2307 15.7606 24.4278C15.7606 23.6248 16.3997 22.972 17.1859 22.972C17.9721 22.972 18.6112 23.6248 18.6112 24.4278C18.6112 25.2307 17.9721 25.8835 17.1859 25.8835ZM17.1859 23.7585C16.8248 23.7585 16.5306 24.0589 16.5306 24.4278C16.5306 24.7966 16.8248 25.097 17.1859 25.097C17.547 25.097 17.8412 24.7966 17.8412 24.4278C17.8412 24.0589 17.547 23.7585 17.1859 23.7585ZM17.1859 23.7585C16.9734 23.7585 16.8009 23.5823 16.8009 23.3652V19.6995C16.8009 19.4824 16.9734 19.3063 17.1859 19.3063C17.3984 19.3063 17.5709 19.4824 17.5709 19.6995V23.3652C17.5709 23.5823 17.3984 23.7585 17.1859 23.7585ZM16.1456 24.821H12.5567C12.3442 24.821 12.1717 24.6448 12.1717 24.4278C12.1717 24.2107 12.3442 24.0345 12.5567 24.0345H16.1456C16.3582 24.0345 16.5306 24.2107 16.5306 24.4278C16.5306 24.6448 16.3582 24.821 16.1456 24.821ZM17.1859 35.3707C11.2785 35.3707 6.47218 30.4616 6.47218 24.4278C6.47218 18.394 11.2785 13.4848 17.1859 13.4848C23.0933 13.4848 27.8996 18.394 27.8996 24.4278C27.8996 30.4616 23.0933 35.3707 17.1859 35.3707ZM17.1859 14.2713C11.7028 14.2713 7.24218 18.8273 7.24218 24.4278C7.24218 30.0282 11.7028 34.5842 17.1859 34.5842C22.669 34.5842 27.1296 30.0282 27.1296 24.4278C27.1296 18.8273 22.669 14.2713 17.1859 14.2713ZM25.3686 18.383C25.1561 18.383 24.9836 18.2068 24.9836 17.9897V7.48013C24.9836 7.26307 25.1561 7.0869 25.3686 7.0869H27.8195C28.1937 7.08533 28.4278 6.83523 28.5218 6.60243C28.6411 6.30593 28.5795 5.99292 28.357 5.76563L24.2983 1.62015C24.1559 1.47465 23.9657 1.39443 23.7624 1.39443C23.5591 1.39443 23.3682 1.47465 23.2265 1.62015L19.1679 5.76563C18.9061 6.03303 18.9122 6.37672 19.0062 6.60873C19.1255 6.90601 19.3889 7.08454 19.7092 7.0869H22.1585C22.371 7.0869 22.5435 7.26307 22.5435 7.48013V15.1789C22.5435 15.3959 22.371 15.5721 22.1585 15.5721C21.946 15.5721 21.7735 15.3959 21.7735 15.1789V7.87258H19.7069C19.0716 7.86865 18.5311 7.49822 18.2939 6.9068C18.0583 6.32088 18.1877 5.65395 18.6242 5.20881L22.6829 1.06333C22.9709 0.769191 23.3543 0.607178 23.764 0.607178C24.1728 0.607178 24.5571 0.769191 24.845 1.06333L28.9037 5.20881C29.3464 5.66103 29.4742 6.30987 29.2363 6.90051C28.9961 7.49665 28.4548 7.86865 27.8241 7.8718H25.7567V17.9882C25.7536 18.2068 25.5812 18.383 25.3686 18.383ZM9.00393 18.383C8.79141 18.383 8.61893 18.2068 8.61893 17.9897V13.2316H6.55226C5.91702 13.2277 5.37648 12.8572 5.13932 12.2658C4.9037 11.6799 5.03306 11.013 5.46888 10.5678L9.52753 6.42233C9.8155 6.12819 10.199 5.96618 10.6086 5.96618C11.0182 5.96618 11.4017 6.12819 11.6897 6.42233L15.7483 10.5678C16.1911 11.02 16.3189 11.6689 16.081 12.2595C15.8407 12.8557 15.2994 13.2277 14.668 13.2308H12.6006V15.1789C12.6006 15.3959 12.4281 15.5721 12.2156 15.5721C12.0031 15.5721 11.8306 15.3959 11.8306 15.1789V12.8384C11.8306 12.6213 12.0031 12.4451 12.2156 12.4451H14.6665C15.0407 12.4435 15.2748 12.1934 15.3687 11.9607C15.4881 11.6642 15.4265 11.3511 15.2039 11.1238L11.1453 6.97837C11.0028 6.83287 10.8126 6.75265 10.6094 6.75265C10.4061 6.75265 10.2151 6.83287 10.0735 6.97837L6.01481 11.1238C5.75301 11.3912 5.75917 11.7349 5.85311 11.9669C5.97246 12.2642 6.2358 12.4428 6.55611 12.4443H9.00393C9.21645 12.4443 9.38893 12.6205 9.38893 12.8376V17.9889C9.38893 18.2068 9.21645 18.383 9.00393 18.383Z" fill="#2A2564"/>
</g>
<defs>
<clipPath id="clip0_39_346">
<rect width="25" height="36" fill="white" transform="translate(5)"/>
</clipPath>
</defs>
</svg>
