<svg width="41" height="39" viewBox="0 0 41 39" fill="none" xmlns="http://www.w3.org/2000/svg">
<g clip-path="url(#clip0_39_295)">
<path d="M34.3614 35.0611C34.2096 35.0611 34.0572 35.0074 33.9351 34.8982C33.6715 34.6626 33.6488 34.258 33.8844 33.9944C36.8258 30.7035 38.4457 26.458 38.4457 22.0399C38.4457 12.1446 30.3953 4.09419 20.5 4.09419C10.6047 4.09419 2.55429 12.1446 2.55429 22.0399C2.55429 26.458 4.17419 30.7035 7.11559 33.9944C7.35118 34.258 7.3285 34.6626 7.06491 34.8982C6.80133 35.1338 6.39666 35.1111 6.16107 34.8475C4.61925 33.1225 3.41373 31.1596 2.57802 29.0134C1.71277 26.7913 1.27406 24.4451 1.27406 22.0399C1.27406 19.4447 1.78248 16.9268 2.78519 14.5561C3.26709 13.4167 3.86353 12.3179 4.55793 11.29C5.24561 10.2721 6.03535 9.31496 6.90521 8.4451C7.77506 7.57525 8.73223 6.78551 9.75015 6.09783C10.778 5.40344 11.8768 4.807 13.0162 4.32509C15.3869 3.32239 17.9048 2.81396 20.5 2.81396C23.0952 2.81396 25.6131 3.32239 27.9838 4.32509C29.1231 4.807 30.222 5.40344 31.2498 6.09783C32.2678 6.78552 33.2249 7.57525 34.0948 8.4451C34.9646 9.31496 35.7544 10.2721 36.4421 11.29C37.1365 12.3179 37.7329 13.4167 38.2148 14.5561C39.2175 16.9268 39.7259 19.4447 39.7259 22.0399C39.7259 24.4451 39.2872 26.7913 38.422 29.0134C37.5863 31.1596 36.3807 33.1225 34.8389 34.8475C34.7125 34.989 34.5373 35.0611 34.3614 35.0611Z" fill="#2A2564"/>
<path d="M20.4193 24.4344C20.0501 24.4344 19.6946 24.3221 19.3912 24.1097C18.9922 23.8303 18.7232 23.3981 18.6475 22.9179C17.8991 22.2862 16.9226 21.4375 15.8898 20.5398C14.5634 19.387 13.06 18.0803 11.7136 16.9499C11.5347 16.7996 11.4583 16.6263 11.5092 16.4863C11.5471 16.3824 11.6459 16.3203 11.7737 16.3203C11.8672 16.3203 11.9753 16.3541 12.0861 16.418C13.6025 17.293 15.3409 18.2505 16.8747 19.0953C18.0812 19.7598 19.2219 20.388 20.0761 20.8777C20.19 20.8555 20.3062 20.8442 20.4222 20.8442C20.7914 20.8442 21.1469 20.9565 21.4503 21.1689C21.843 21.444 22.1052 21.8554 22.1884 22.3276C22.2717 22.7998 22.1661 23.2761 21.8911 23.6689C21.5554 24.1482 21.0052 24.4344 20.4193 24.4344C20.4193 24.4344 20.4193 24.4344 20.4193 24.4344Z" fill="#2A2564"/>
<path d="M32.2448 33.1428C32.1128 33.1428 31.9887 33.0914 31.8953 32.9981L29.9488 31.0515C29.8554 30.9582 29.804 30.8341 29.804 30.7021C29.804 30.5701 29.8554 30.4459 29.9488 30.3526C30.0421 30.2593 30.1662 30.2079 30.2982 30.2079C30.4302 30.2079 30.5544 30.2593 30.6477 30.3526L32.5943 32.2992C32.787 32.4919 32.7869 32.8054 32.5943 32.9981C32.5009 33.0914 32.3768 33.1428 32.2448 33.1428ZM8.7552 33.1428C8.62319 33.1428 8.49909 33.0914 8.40574 32.9981C8.31239 32.9047 8.26098 32.7806 8.26098 32.6486C8.26098 32.5166 8.31239 32.3925 8.40574 32.2992L10.3523 30.3526C10.4456 30.2593 10.5697 30.2079 10.7018 30.2079C10.8338 30.2079 10.9579 30.2593 11.0512 30.3526C11.1446 30.4459 11.196 30.57 11.196 30.7021C11.196 30.8341 11.1446 30.9582 11.0512 31.0515L9.10466 32.9981C9.01132 33.0914 8.88721 33.1428 8.7552 33.1428ZM33.6326 22.1662C33.3601 22.1662 33.1384 21.9445 33.1384 21.672C33.1384 21.3995 33.3601 21.1778 33.6326 21.1778H36.3854C36.658 21.1778 36.8797 21.3995 36.8797 21.672C36.8797 21.9445 36.658 22.1662 36.3854 22.1662H33.6326ZM4.61455 22.1662C4.34204 22.1662 4.12033 21.9445 4.12033 21.672C4.12033 21.3995 4.34204 21.1778 4.61455 21.1778H7.3674C7.63991 21.1778 7.86162 21.3995 7.86162 21.672C7.86162 21.9445 7.63991 22.1662 7.3674 22.1662H4.61455ZM29.7861 13.1361C29.6541 13.1361 29.53 13.0847 29.4367 12.9913C29.3433 12.898 29.2919 12.7739 29.2919 12.6419C29.2919 12.5098 29.3433 12.3857 29.4367 12.2924L31.3832 10.3458C31.4766 10.2525 31.6007 10.2011 31.7327 10.2011C31.8647 10.2011 31.9888 10.2525 32.0822 10.3458C32.1755 10.4392 32.2269 10.5633 32.2269 10.6953C32.2269 10.8273 32.1755 10.9514 32.0822 11.0448L30.1356 12.9913C30.0423 13.0847 29.9181 13.1361 29.7861 13.1361ZM11.2138 13.1361C11.0818 13.1361 10.9577 13.0847 10.8644 12.9913L8.91782 11.0448C8.82447 10.9514 8.77306 10.8273 8.77306 10.6953C8.77306 10.5633 8.82447 10.4392 8.91782 10.3458C9.01117 10.2525 9.13527 10.2011 9.26728 10.2011C9.39929 10.2011 9.5234 10.2525 9.61674 10.3458L11.5633 12.2924C11.6567 12.3857 11.7081 12.5098 11.7081 12.6419C11.7081 12.7739 11.6566 12.898 11.5633 12.9913C11.47 13.0847 11.3459 13.1361 11.2138 13.1361ZM20.5 9.28962C20.2275 9.28962 20.0058 9.06791 20.0058 8.79541V6.04256C20.0058 5.77005 20.2275 5.54834 20.5 5.54834C20.7725 5.54834 20.9942 5.77005 20.9942 6.04256V8.79541C20.9942 9.06791 20.7725 9.28962 20.5 9.28962Z" fill="#2A2564"/>
</g>
<defs>
<clipPath id="clip0_39_295">
<rect width="41" height="37.1562" fill="white" transform="translate(0 1)"/>
</clipPath>
</defs>
</svg>
